<?xml version="1.0" encoding="utf-8"?>
<!-- Generator: Adobe Illustrator 18.0.0, SVG Export Plug-In . SVG Version: 6.00 Build 0)  -->
<!DOCTYPE svg PUBLIC "-//W3C//DTD SVG 1.0//EN" "http://www.w3.org/TR/2001/REC-SVG-20010904/DTD/svg10.dtd">
<svg version="1.0" id="Capa_1" xmlns="http://www.w3.org/2000/svg" xmlns:xlink="http://www.w3.org/1999/xlink" x="0px" y="0px"
	 viewBox="0 0 922.1 792" enable-background="new 0 0 922.1 792" xml:space="preserve">
<g>
	<linearGradient id="SVGID_1_" gradientUnits="userSpaceOnUse" x1="913.933" y1="-112.5047" x2="388.3989" y2="515.2474">
		<stop  offset="0" style="stop-color:#41509C"/>
		<stop  offset="0.8147" style="stop-color:#618CF9"/>
	</linearGradient>
	<path fill="url(#SVGID_1_)" d="M922.1,0v684.4c-105.4,45.5-238.6,25.7-323.5-50.6c-26.3-23.7-48.8-52.4-80.4-68.8
		c-69.4-36.1-167.7-5.9-224.3-59C245,460.1,258,379.2,221.5,323.5c-15.8-24.2-37.1-44.9-60.4-62.6C76.3,196.5,67.8,50.7,152.6,0
		H922.1z"/>
	<linearGradient id="SVGID_2_" gradientUnits="userSpaceOnUse" x1="901.8781" y1="-87.4265" x2="374.7588" y2="542.219">
		<stop  offset="0" style="stop-color:#3D6DFA"/>
		<stop  offset="0.7617" style="stop-color:#6BBED6"/>
	</linearGradient>
	<path opacity="0.1246" fill="url(#SVGID_2_)" d="M902.6,19.1l19.5,684.7c-105.1,45.8-257.7,31.3-342.4-45.6
		c-26.3-23.9-48.7-52.8-80.3-69.4c-69.2-36.4-167.4-6-223.8-59.5c-48.8-46.3-35.8-127.8-72.2-183.9c-15.8-24.4-37-45.3-60.2-63.1
		C58.5,217.3,69.5,51.1,154.1,0L902.6,19.1z"/>
	<linearGradient id="SVGID_3_" gradientUnits="userSpaceOnUse" x1="859.6777" y1="152.9269" x2="553.7656" y2="518.3397">
		<stop  offset="0" style="stop-color:#FFFFFF"/>
		<stop  offset="0.1681" style="stop-color:#DBE5FE"/>
		<stop  offset="0.7617" style="stop-color:#618CF9"/>
	</linearGradient>
	<path opacity="8.164900e-002" fill="url(#SVGID_3_)" d="M922.1,205.2v425.6c-11.8,6.3-25.9,9.9-39.4,11.5
		c-44.1,5.2-90.2-5.1-126.9-28.4c-53.9-34.2-84.1-91.9-129.7-135.2c-34.8-33.1-79-57.7-127-70.7c-31.3-8.5-64.3-12.2-94.2-24.2
		c-42.6-17.1-77.7-53.3-83.4-95.9c-5.7-42.6,23.4-89,68.4-99.3c37.9-8.7,77.2,7.7,116.2,6.5c33.1-1.1,63.6-14.7,91.1-30.9
		c24.7-14.6,40.8-31.5,72.9-30.8c23.8,0.6,46.7,9.9,65.2,23.7c22.7,16.9,40.4,41.1,67.9,50c37.5,12.1,72.8-13.3,109.1-5.2
		C915.8,202.6,919,203.8,922.1,205.2z"/>
</g>
</svg>
