<?xml version="1.0" encoding="utf-8"?>
<!-- Generator: Adobe Illustrator 18.0.0, SVG Export Plug-In . SVG Version: 6.00 Build 0)  -->
<!DOCTYPE svg PUBLIC "-//W3C//DTD SVG 1.0//EN" "http://www.w3.org/TR/2001/REC-SVG-20010904/DTD/svg10.dtd">
<svg version="1.0" id="Capa_1" xmlns="http://www.w3.org/2000/svg" xmlns:xlink="http://www.w3.org/1999/xlink" x="0px" y="0px"
	 viewBox="362.8 0 792.1 748.9" enable-background="new 362.8 0 792.1 748.9" xml:space="preserve">
<g>
	<path opacity="0.1" enable-background="new    " d="M1120.5,470.8c10,10.2-5,26.8-14.3,35.6c-17.2,16.5-38.9,4.3-70-10.8
		c-21.9-10.6-24-25.4,6.9-39.3C1073.8,442.4,1098.5,448.9,1120.5,470.8z"/>
	<path opacity="0.1" enable-background="new    " d="M1083.3,544.8l51.4-29.4l-142.3-82.2l111.5-65l-120.5-69.3l-66.6,38.3
		L704.2,214.9l-315,181.9l151.1,88.5c-28.8,29.3-33.3,54.7-40.3,61c-3.4,3.1-7.2,5.5-10.9,8.3c-2.3,1.7-4.1,4.4-7,5.2
		c-3.2,0.9-5.7,0-8.6,2.5c-1.8,1.6-3.2,3.6-4.6,5.7c-0.5,0.8-1.1,1.6-1.6,2.4c-7.4,11-23.4,15.8-27.7,29.6
		c-5.9,18.9-5.7,32.7,23.2,26.1c14.1-3.2,23.6-13.3,33.9-22.4c2.4-2.1,4.9-4.3,7.7-5.8c1.8-1,3.8-1.6,5.7-2.4
		c3.2-1.2,6.3-2.7,9.4-4.2c2.9-1.4,5.9-2.8,8.8-4.2c4.2-2,8.4-4,12.5-6.2c11.7-6.3,22.6-14.2,32.3-23.3c2.2-2.1,4.4-4.3,6.6-6.5
		c3.4-3.4,6.8-6.8,10.1-10.1c2.4-2.4,4.9-4.9,6.4-8c1.9-3.8,2.2-8.1,2.6-12.3c-0.1,0.8,46,26,63.2,36.1c0.5,0.3,1,0.6,1.5,0.9
		l-40.6,23.2l258.2,149l262.4-149.9L1083.3,544.8z"/>
	<ellipse opacity="0.1" enable-background="new    " cx="508.3" cy="192.9" rx="74.5" ry="44.6"/>
	<ellipse opacity="0.1" enable-background="new    " cx="649.4" cy="64.8" rx="74.5" ry="44.6"/>
	<g>
		<path fill="#B89AF2" d="M879.7,709.7c0,0-43.6-18.4-58.1-26.7c-43-24.8-172.4-99.6-172.4-99.6l255.1-147.2
			c0,0,134.1,77.5,178.7,103.3c12.9,7.5,51.6,23,51.6,23L879.7,709.7z"/>
		<path fill="#FC5988" d="M873.7,640.2c0,0-84.6-37.6-113-53.9c-29.3-16.9-117.2-67.7-117.2-67.7l255.1-147.2
			c0,0,104.4,60.2,139.3,80.5c22.8,13.2,90.9,41.2,90.9,41.2L873.7,640.2z"/>
		<g>
			<path fill="#2C1D1B" d="M908.6,437.1c2.4,1.1,4.3,2.2,5.9,2.9s2.7,1.4,3.6,1.9s1.4,0.9,1.9,1.1c0.3,0.3,0.6,0.4,0.6,0.6
				c0,0-0.1,0.1-0.3,0.6c-0.3,0.3-0.6,0.7-0.9,1.1c-0.3,0.4-0.6,0.7-1,1.1c-0.3,0.3-0.4,0.6-0.6,0.6c-0.1,0.1-0.7,0.3-1.6,0.4
				c-0.9,0.1-1.9,0.3-3.2,0.3c-1.3,0.1-2.6,0.1-4,0.3c-1.4,0.1-2.7,0.1-4,0.1s-2.3,0-3.3,0.1c-1,0-1.6,0-1.9,0.1
				c-0.4,0-0.7,0.1-0.9,0.3c-0.1,0.1-0.1,0.3,0,0.4c0.6,0.1,1.1,0.4,1.9,0.7c0.7,0.3,1.4,0.7,2,1.1c0.6,0.4,1.1,0.9,1.6,1.4
				c0.4,0.6,0.6,1.1,0.6,1.9s-0.4,1.4-1.1,2.2c-0.7,0.9-1.9,1.7-3.4,2.6c-1,0.6-2.4,1.3-4,2c-1.6,0.7-3.4,1.4-5.3,2.3
				c-1.9,0.7-3.9,1.4-6,2c-2.2,0.6-4.2,1-6.2,1.3c-2,0.3-3.9,0.4-5.6,0.3c-1.7-0.1-3.3-0.6-4.4-1.3c-1-0.6-1.6-1.1-2.2-1.9
				c-0.4-0.7-0.9-1.4-0.9-2c-0.1-0.7-0.1-1.3,0.1-1.9s0.7-1,1.1-1.1c0.6-0.3,1.1-0.4,1.9-0.6c0.7-0.1,1.3-0.3,1.7-0.3
				c-0.1,1.4,0.3,2.4,1.1,3c0.9,0.6,2,1,3.4,1.1c1.4,0.1,3,0,4.9-0.4c1.9-0.3,3.6-0.9,5.3-1.3c1.7-0.6,3.4-1.1,5-1.9
				s2.9-1.3,3.9-1.9c1-0.6,1.6-1.1,1.6-1.7c0-0.6-0.3-1-1-1.3c-0.6-0.4-1.6-0.7-2.6-1c-1.1-0.3-2.2-0.6-3.2-0.9
				c-1-0.3-1.9-0.4-2.7-0.6c-0.7-0.1-1.1-0.3-1.3-0.4c-0.1-0.3-0.1-0.6,0-0.9c0.1-0.3,0.3-0.7,0.4-1c0.1-0.3,0.4-0.6,0.6-0.9
				c0.1-0.3,0.3-0.4,0.4-0.4c0.3-0.3,1-0.4,2.2-0.7c1.1-0.1,2.6-0.4,4.2-0.6s3.3-0.3,5.2-0.4c1.9-0.1,3.6-0.3,5.3-0.4
				c1.7-0.1,3.2-0.1,4.6-0.3c1.3-0.1,2.3-0.1,2.9-0.3c0.3,0,0.4-0.1,0.6-0.3c0.1-0.1,0.1-0.3,0-0.3c-0.3-0.1-1-0.6-2-1
				c-1-0.4-1.9-0.9-2.9-1.4c-0.9-0.6-1.7-1.1-2.3-1.7c-0.7-0.6-0.9-1.1-0.4-1.6c0,0,0.1-0.1,0.7-0.4c0.6-0.3,1.1-0.4,1.7-0.6
				c0.6-0.1,1.1-0.3,1.7-0.4C908.4,436.9,908.6,436.9,908.6,437.1z"/>
			<path fill="#2C1D1B" d="M937.6,451.1c1.6,0.9,2.3,2.2,2.2,3.6c-0.1,1.4-1,3-2.4,4.7c-1.4,1.7-3.4,3.4-5.9,5.3
				c-2.4,1.9-5.2,3.6-8.2,5.3c-3,1.7-6.2,3.2-9.3,4.6c-3.3,1.4-6.3,2.4-9.5,3.3c-3.2,0.9-5.9,1.3-8.3,1.3c-2.6,0.1-4.6-0.3-6.2-1.1
				c-1.7-1-2.6-2.3-2.4-3.7c0.1-1.4,1-3,2.4-4.7c1.4-1.7,3.4-3.4,6-5.2c2.6-1.7,5.3-3.4,8.5-5.2c3-1.6,6.3-3.2,9.6-4.4
				c3.3-1.3,6.5-2.4,9.6-3.2c3-0.9,5.9-1.3,8.3-1.4C934.3,450,936.1,450.3,937.6,451.1z M894.8,474.5c1.3,0.7,3.3,0.9,5.9,0.3
				c2.6-0.6,5.5-1.6,8.6-2.9c3.2-1.3,6.3-2.9,9.5-4.7c3.2-1.9,6-3.6,8.5-5.3c2.4-1.7,4.2-3.3,5.3-4.7c1.1-1.4,1.3-2.4,0.3-2.9
				c-1-0.6-2.7-0.4-5.2,0.1c-2.4,0.7-5.3,1.7-8.3,3c-3.2,1.3-6.3,2.9-9.5,4.7c-3.3,1.7-6.2,3.4-8.6,5.2c-2.6,1.7-4.4,3.2-5.7,4.6
				C894.2,473.4,893.9,474.1,894.8,474.5z"/>
			<path fill="#2C1D1B" d="M937.6,485.1c-1.7,1-3.9,2-6.5,2.7c-2.6,0.7-5,1.4-7.6,1.9c-2.6,0.4-4.9,0.7-7,0.7s-3.6-0.3-4.6-0.7
				c-1.1-0.7-2-1.4-2.6-2.3s-0.9-1.7-0.9-2.6c0-0.9,0.4-1.7,1.1-2.7c0.7-0.9,1.7-1.7,3.2-2.6c0.1-0.1,0.4-0.1,0.6,0
				c0.1,0.1,0.4,0.3,0.6,0.6c0.1,0.3,0.4,0.4,0.6,0.7c0.1,0.3,0.3,0.4,0.3,0.6c-1.3,1.6-1.9,2.9-1.7,3.7c0,0.9,0.6,1.4,1.4,1.9
				c0.9,0.3,2.2,0.4,3.7,0.3c1.6-0.1,3.3-0.4,5-1c1.7-0.4,3.4-1.1,5.2-1.9c1.7-0.7,3.3-1.4,4.6-2.3s2-1.7,2-2.6
				c0-0.9-0.3-1.6-1.1-2.3c-0.9-0.7-1.9-1.1-3.3-1.6c-1.4-0.4-2.7-0.6-4.3-0.6c-0.1-0.1-0.3-0.3-0.4-0.4c-0.1-0.1-0.1-0.4-0.3-0.7
				l-0.3-0.9c0.1-0.3,0.7-0.7,1.9-1.3c1-0.6,2.3-1.3,3.9-2.2c1.6-0.9,3.2-1.6,4.9-2.4c1.7-0.9,3.4-1.7,5-2.3c1.6-0.7,2.9-1.3,4-1.7
				c1.1-0.4,1.9-0.6,2.2-0.6c0.6,0,1.3,0.1,2,0.3c0.7,0.1,1.6,0.6,2.6,1c1,0.4,2.2,1.1,3.6,1.9c1.4,0.9,3.2,1.9,5.2,3.2
				c0,0.1-0.1,0.3-0.3,0.6c-0.1,0.3-0.4,0.7-0.7,1s-0.7,0.6-1.1,0.9c-0.4,0.3-1,0.4-1.4,0.4c-0.3,0-0.7-0.1-1.3-0.4
				c-0.7-0.3-1.4-0.6-2.2-0.9c-0.9-0.4-1.6-0.7-2.6-1.1c-0.9-0.4-1.7-0.9-2.4-1.1c-0.7-0.4-1.4-0.7-2-0.9c-0.6-0.3-0.9-0.4-0.9-0.4
				c-0.1,0-0.4,0-0.9,0c-0.6,0.1-0.9,0.1-1.1,0.3c-1.3,0.7-2.6,1.3-3.7,1.9c-1.1,0.6-2.4,1.1-3.7,1.9c-0.3,0.1-0.4,0.3-0.4,0.6
				c-0.1,0.3,0,0.4,0.3,0.6c2.6,0.7,4.4,1.6,5.6,2.6c1.1,1,1.9,2.2,1.9,3.3s-0.4,2.4-1.4,3.6C941,482.9,939.6,484,937.6,485.1z"/>
			<path fill="#2C1D1B" d="M969.4,493.6c0,0.1-0.1,0.4-0.3,0.7c-0.3,0.3-0.6,0.6-0.9,0.7c-0.4,0.3-0.7,0.4-1.1,0.7
				c-0.4,0.3-0.9,0.4-1.1,0.6c-0.4,0.1-1,0.1-1.7-0.1c-0.7-0.1-1.4-0.4-2.3-0.7c-0.7-0.3-1.4-0.7-2.2-1c-0.7-0.3-1.1-0.6-1.4-0.7
				c-0.1,0-0.4,0-0.9,0s-0.6,0.1-0.9,0.1c-0.6,0.3-1.1,0.7-1.7,1.1c-0.6,0.4-1.1,0.7-1.7,1.1c-0.6,0.4-1.1,0.7-1.7,1.1
				c-0.6,0.3-1.3,0.6-2,0.9c-0.3,0-0.6,0-0.9-0.1s-0.7-0.1-1-0.3c-0.4-0.1-0.7-0.3-0.9-0.4c-0.3-0.1-0.4-0.3-0.4-0.4
				c0-0.1,0.4-0.4,1-1c0.6-0.4,1.3-1,2-1.6c0.7-0.6,1.4-1,2.2-1.6c0.7-0.4,1.1-0.7,1.3-0.9s0.3-0.3,0.3-0.4c0-0.3,0-0.4-0.1-0.4
				c-0.9-0.4-1.7-1-2.6-1.4c-0.9-0.4-1.7-1-2.4-1.6c-0.4,0-0.4-0.3-0.4-0.6c0.1-0.3,0.3-0.6,0.7-1c0.4-0.3,0.7-0.7,1.3-1
				c0.4-0.3,0.9-0.4,1-0.6c0.3,0,0.7,0.1,1.6,0.4c0.7,0.3,1.4,0.6,2.3,0.9c0.7,0.3,1.6,0.7,2.2,1c0.7,0.3,1,0.4,1.3,0.6
				c0.1,0.1,0.6,0,1.1,0c0.6-0.1,0.9-0.1,1-0.3c0.6-0.3,1.1-0.7,1.9-1.1c0.7-0.4,1.4-1,2.2-1.4c0.7-0.4,1.6-0.9,2.3-1.3
				c0.7-0.4,1.4-0.6,2.2-0.7c0.3,0,0.7,0,1,0.1c0.4,0.1,0.7,0.3,1,0.6c0.3,0.3,0.4,0.6,0.6,0.9c0.1,0.3,0,0.6-0.1,1
				c-0.7,0.7-1.6,1.4-2.9,2.2s-2.4,1.6-3.4,2.2c-0.1,0.1-0.1,0.3-0.3,0.4c0,0.1,0,0.3,0.1,0.4c1,0.4,2,1,3.2,1.4
				C968.1,492.3,968.8,492.9,969.4,493.6z"/>
			<path fill="#2C1D1B" d="M984.2,512c-1.7,1-3.9,2-6.5,2.7c-2.6,0.7-5,1.4-7.6,1.9c-2.6,0.4-4.9,0.7-7,0.7c-2.2,0-3.6-0.3-4.6-0.7
				c-1.1-0.7-2-1.4-2.6-2.3c-0.6-0.9-0.9-1.7-0.9-2.6c0-0.9,0.4-1.7,1.1-2.7c0.7-0.9,1.7-1.7,3.2-2.6c0.1-0.1,0.4-0.1,0.7,0
				c0.1,0.1,0.4,0.3,0.6,0.6c0.1,0.3,0.4,0.4,0.6,0.7c0.1,0.3,0.3,0.4,0.3,0.6c-1.3,1.6-1.9,2.9-1.7,3.7c0,0.9,0.6,1.4,1.4,1.9
				c0.9,0.3,2.2,0.4,3.7,0.3c1.6-0.1,3.3-0.4,5-1c1.7-0.4,3.4-1.1,5.2-1.9c1.7-0.7,3.3-1.4,4.6-2.3s2-1.7,2-2.6
				c0-0.9-0.3-1.6-1.1-2.3c-0.9-0.7-1.9-1.1-3.3-1.6c-1.4-0.4-2.7-0.6-4.3-0.6c-0.1-0.1-0.3-0.3-0.4-0.4c-0.1-0.1-0.1-0.4-0.3-0.7
				l-0.3-0.9c0.1-0.3,0.7-0.7,1.9-1.3c1-0.6,2.3-1.3,3.9-2.2c1.6-0.9,3.2-1.6,4.9-2.4s3.4-1.7,5-2.4c1.6-0.7,2.9-1.3,4-1.7
				c1.1-0.4,1.9-0.6,2.2-0.6c0.6,0,1.3,0.1,2,0.3c0.7,0.1,1.6,0.6,2.6,1c1,0.4,2.2,1.1,3.6,1.9c1.4,0.9,3.2,1.9,5.2,3.2
				c0,0.1-0.1,0.3-0.3,0.6c-0.1,0.3-0.4,0.7-0.7,1c-0.3,0.3-0.7,0.6-1.1,0.9c-0.4,0.3-1,0.4-1.4,0.4c-0.3,0-0.7-0.1-1.3-0.4
				c-0.7-0.3-1.4-0.6-2.2-0.9c-0.9-0.4-1.7-0.7-2.6-1.1c-0.9-0.4-1.7-0.9-2.4-1.1c-0.7-0.4-1.4-0.7-2-0.9c-0.6-0.3-0.9-0.4-0.9-0.4
				c-0.1,0-0.4,0-0.9,0c-0.6,0.1-0.9,0.1-1.1,0.3c-1.3,0.7-2.6,1.3-3.7,1.9c-1.1,0.6-2.4,1.1-3.7,1.9c-0.3,0.1-0.4,0.3-0.4,0.6
				c-0.1,0.3,0,0.4,0.3,0.6c2.6,0.7,4.4,1.6,5.6,2.6c1.1,1,1.9,2.2,1.9,3.3c0,1.1-0.4,2.4-1.4,3.6C987.5,509.8,986,511,984.2,512z"
				/>
			<path fill="#2C1D1B" d="M1016.6,499.3c2.4,1.1,4.3,2.2,5.9,2.9c1.6,0.7,2.7,1.4,3.6,1.9c0.9,0.4,1.6,0.9,1.9,1.1
				c0.3,0.3,0.6,0.4,0.6,0.6c0,0-0.1,0.1-0.4,0.6c-0.3,0.3-0.6,0.7-0.9,1.1c-0.3,0.4-0.7,0.7-1,1.1c-0.3,0.3-0.4,0.6-0.6,0.6
				c-0.1,0.1-0.7,0.3-1.6,0.4c-0.9,0.1-1.9,0.3-3.2,0.3c-1.3,0.1-2.6,0.1-4,0.3s-2.7,0.1-4,0.1c-1.3,0-2.3,0-3.3,0.1
				c-1,0-1.6,0-1.9,0.1c-0.4,0-0.7,0.1-0.9,0.3c-0.1,0.1-0.1,0.3,0,0.4c0.6,0.1,1.1,0.4,1.9,0.7c0.7,0.3,1.4,0.7,2,1.1
				c0.6,0.4,1.1,0.9,1.6,1.4s0.6,1.1,0.6,1.9s-0.4,1.4-1.1,2.2c-0.7,0.9-1.9,1.7-3.4,2.6c-1,0.6-2.4,1.3-4,2
				c-1.6,0.7-3.4,1.4-5.3,2.3c-1.9,0.7-3.9,1.4-6,2c-2.2,0.6-4.2,1-6.2,1.3c-2,0.3-3.9,0.4-5.6,0.3c-1.7-0.1-3.3-0.6-4.4-1.1
				c-1-0.6-1.7-1.1-2.2-1.9c-0.4-0.7-0.7-1.4-0.9-2c-0.1-0.7-0.1-1.3,0.1-1.9c0.3-0.6,0.7-1,1.1-1.1c0.6-0.3,1.1-0.4,1.7-0.6
				c0.7-0.1,1.3-0.3,1.7-0.3c-0.1,1.4,0.3,2.4,1.1,3c0.9,0.6,2,1,3.4,1.1c1.4,0.1,3,0,4.9-0.4c1.9-0.3,3.6-0.9,5.3-1.3
				c1.7-0.6,3.4-1.1,5-1.9c1.6-0.7,2.9-1.3,3.9-1.9c1-0.6,1.6-1.1,1.6-1.7c0-0.6-0.3-1-1-1.3c-0.6-0.4-1.6-0.7-2.6-1
				c-1.1-0.3-2.2-0.6-3.2-0.9c-1-0.3-1.9-0.4-2.6-0.6c-0.7-0.1-1.1-0.3-1.3-0.4c-0.1-0.3-0.1-0.6,0-0.9c0.1-0.3,0.3-0.7,0.4-1
				c0.1-0.3,0.4-0.6,0.6-0.9c0.1-0.3,0.3-0.4,0.4-0.4c0.3-0.3,1-0.6,2.3-0.7c1.1-0.1,2.6-0.4,4.2-0.6c1.6-0.1,3.3-0.3,5.2-0.4
				c1.9-0.1,3.6-0.3,5.3-0.4c1.7-0.1,3.2-0.1,4.6-0.3c1.3-0.1,2.3-0.1,2.9-0.3c0.3,0,0.4-0.1,0.6-0.3c0.1-0.1,0.1-0.3,0-0.3
				c-0.3-0.1-1-0.6-2-1c-1-0.4-1.9-0.9-2.9-1.4c-0.9-0.6-1.7-1.1-2.3-1.7c-0.7-0.6-0.9-1.1-0.4-1.6c0,0,0.1-0.1,0.7-0.4
				c0.6-0.3,1.1-0.4,1.7-0.6c0.6-0.1,1.1-0.3,1.7-0.4C1016.5,499.2,1016.7,499.2,1016.6,499.3z"/>
			<path fill="#2C1D1B" d="M1002.7,526.2c1.3-0.7,2.9-1.4,4.9-2c2-0.6,4-1,6-1.3c2-0.3,4-0.4,5.7-0.3c1.7,0,3,0.3,3.9,0.7
				c0.1,0,0.1,0,0.3,0c0.1-0.1,0.1-0.1,0.1-0.3c-0.1-0.3,0-0.7,0.1-1.3c0.3-0.6,0.6-1.1,1-1.9c0.4-0.7,1-1.3,1.6-2
				c0.6-0.7,1.3-1.1,2-1.6c1.1-0.6,2.4-1.1,4.2-1.7c1.7-0.6,3.3-0.9,5-1.1c1.7-0.3,3.3-0.3,4.9-0.3s2.7,0.4,3.7,0.9
				c0.9,0.4,1.4,1.1,2,1.9c0.6,0.7,0.9,1.6,1,2.4s0,1.7-0.6,2.6c-0.4,0.9-1.3,1.7-2.6,2.4c-1.1,0.6-2.3,1.3-3.6,1.9
				c-1.3,0.6-2.7,1.1-4.2,1.6c-1.4,0.4-3,0.9-4.6,1c-1.6,0.3-3.2,0.3-4.6,0.3c0,1.3-0.6,2.6-1.4,4c-1,1.4-2.6,2.7-4.7,4
				c-1.6,0.9-3.7,1.7-6.2,2.6c-2.6,0.7-5.2,1.4-7.7,1.7c-2.7,0.4-5.2,0.6-7.6,0.4s-4.2-0.6-5.5-1.3c-1.1-0.7-1.9-1.6-2.2-2.7
				c-0.3-1-0.1-2.2,0.4-3.4c0.6-1.1,1.6-2.4,2.9-3.7C998.7,528.6,1000.5,527.5,1002.7,526.2z M1002.3,537.8c1,0.6,2.3,0.9,4,0.7
				c1.7-0.1,3.3-0.4,5.2-0.9c1.7-0.4,3.3-1,4.9-1.6s2.7-1.1,3.4-1.6c0.7-0.4,1.6-1,2.2-1.7c0.7-0.7,1.3-1.3,1.6-2
				c0.4-0.7,0.6-1.4,0.6-2c0-0.7-0.3-1.1-0.9-1.7c-0.3-0.4-1-0.7-2.2-1s-2.6-0.3-4.2-0.3s-3.2,0.3-4.9,0.6s-3.2,0.9-4.6,1.7
				c-1.3,0.7-2.6,1.6-3.7,2.4c-1.1,0.9-2,1.7-2.6,2.6c-0.6,0.9-0.9,1.7-0.7,2.4C1000.5,536.5,1001.1,537.2,1002.3,537.8z
				 M1042.6,521.2c0.4-0.3,0.7-0.7,0.9-1.1c0.1-0.4,0.1-0.9,0-1.3c-0.1-0.4-0.3-0.9-0.6-1.3c-0.3-0.4-0.6-0.7-0.9-0.9
				c-0.6-0.3-1.3-0.6-2.3-0.7c-0.9-0.1-1.9-0.1-2.9,0c-1,0.1-2.2,0.3-3.2,0.7c-1.1,0.3-2.2,0.7-3,1.3c-0.4,0.3-0.9,0.7-1.3,1.3
				c-0.4,0.6-0.7,1.3-1,2c-0.3,0.7-0.4,1.4-0.4,2s0.1,1,0.4,1.1c0.9,0.6,2,0.7,3.4,0.4c1.4-0.1,2.7-0.6,4.2-1c1.4-0.4,2.7-1,4-1.6
				C1041.3,521.9,1042.1,521.4,1042.6,521.2z"/>
		</g>
		<g>
			<path fill="#2C1D1B" d="M819.6,551.7c1.4-0.9,3.3-1.6,5.5-2.2c2.3-0.6,4.6-1.1,6.9-1.4s4.4-0.4,6.5-0.4c2,0,3.4,0.3,4.4,0.9
				c0.1,0,0.3,0,0.3,0c0.1-0.1,0.1-0.1,0.1-0.3c-0.1-0.3,0-0.7,0.3-1.4c0.3-0.6,0.7-1.3,1.1-2c0.4-0.7,1.1-1.4,1.7-2.2
				c0.7-0.7,1.4-1.3,2.3-1.9c1.3-0.7,2.7-1.3,4.7-2c1.9-0.6,3.7-1,5.7-1.3s3.7-0.4,5.6-0.3c1.7,0.1,3.2,0.4,4.2,1
				c0.9,0.6,1.7,1.3,2.3,2c0.6,0.9,1,1.7,1.1,2.7c0.1,1,0,2-0.6,2.9c-0.6,1-1.6,1.9-3,2.7c-1.3,0.7-2.6,1.4-4,2.2
				c-1.4,0.7-3,1.3-4.7,1.9c-1.6,0.6-3.3,0.9-5.2,1.1c-1.7,0.3-3.4,0.4-5.2,0.3c0,1.4-0.6,3-1.6,4.6c-1,1.6-2.9,3.2-5.3,4.6
				c-1.9,1-4.2,2-7,2.9s-5.7,1.6-8.9,2c-3,0.4-5.9,0.7-8.6,0.6c-2.7-0.1-4.7-0.6-6.2-1.4c-1.3-0.9-2.2-1.9-2.4-3s-0.1-2.4,0.6-3.9
				c0.6-1.4,1.7-2.7,3.3-4.3C815.2,554.6,817.2,553.1,819.6,551.7z M819.2,564.9c1.1,0.6,2.6,0.9,4.4,0.7c1.9-0.1,3.9-0.4,5.7-1
				c2-0.6,3.9-1.1,5.6-1.7c1.7-0.7,3-1.3,3.9-1.7c0.9-0.6,1.7-1.1,2.4-1.9c0.7-0.7,1.4-1.6,1.9-2.3c0.4-0.9,0.7-1.6,0.7-2.3
				c0-0.7-0.3-1.4-0.9-1.9c-0.3-0.4-1.1-0.9-2.4-1.1c-1.3-0.3-2.9-0.4-4.6-0.4c-1.7,0-3.6,0.3-5.5,0.7c-1.9,0.4-3.6,1-5.2,1.9
				c-1.6,0.9-3,1.9-4.3,2.9c-1.3,1-2.3,2-3,3c-0.7,1-1,1.9-0.9,2.9C817.3,563.5,817.9,564.2,819.2,564.9z M864.8,546.1
				c0.6-0.3,0.9-0.7,1-1.3c0.1-0.6,0.1-1,0-1.4c-0.1-0.6-0.3-1-0.6-1.4c-0.3-0.4-0.6-0.7-1-0.9c-0.7-0.4-1.6-0.6-2.6-0.7
				c-1-0.1-2.2-0.1-3.3,0c-1.1,0.1-2.4,0.4-3.6,0.7c-1.3,0.4-2.3,0.9-3.4,1.4c-0.4,0.3-1,0.9-1.4,1.6c-0.4,0.7-0.9,1.4-1.1,2.3
				s-0.4,1.6-0.4,2.3c0,0.7,0.1,1.1,0.4,1.3c1,0.6,2.3,0.7,3.9,0.6c1.6-0.1,3.2-0.6,4.7-1.1s3.2-1.1,4.4-1.7
				C863.4,547,864.2,546.5,864.8,546.1z"/>
			<path fill="#2C1D1B" d="M846.7,578.7c0.3,0.6,0,1.1-0.6,1.7c-0.6,0.6-1.3,1-2.2,1.4s-1.7,0.7-2.7,0.9c-1,0.1-1.6,0.3-2.2,0.3
				c-0.6-0.1-1-0.3-1.1-0.6c-0.3-0.3-0.4-0.6-0.4-1c0-0.4,0.1-0.7,0.4-1.1c0.3-0.4,0.7-0.7,1.3-1c0.6-0.3,1.3-0.6,2.2-1
				c0.9-0.3,1.6-0.6,2.3-0.7c0.7-0.1,1.3-0.1,1.9,0C846,577.7,846.5,578.1,846.7,578.7z M897.7,561.9c-2,1.1-4.6,2.2-7.7,3
				c-3.2,0.9-6.3,1.6-9.5,2.2c-3.2,0.6-6.3,1-9.2,1.4c-2.9,0.4-5.2,0.7-7,0.9c-1.7,0.3-3.3,0.7-4.7,1.6c-1.6,0.9-3.3,2-5.3,3.4
				c-0.4,0.3-0.9,0.3-1.4,0.3c-0.4,0-0.9-0.3-1.3-0.4c-0.4-0.3-0.7-0.4-1-0.9c-0.3-0.3-0.4-0.6-0.4-0.9c0-0.4,0.1-1,0.7-1.6
				s1.4-1.1,2.4-1.9c1.1-0.7,2.4-1.4,4-2c1.6-0.7,3.3-1.3,5.3-2c0.6-0.1,1.7-0.4,3.3-0.7c1.6-0.3,3.3-0.6,5.3-0.9c2-0.3,4-0.6,6.3-1
				c2.2-0.3,4.3-0.7,6.3-1.1s3.9-0.9,5.5-1.3c1.6-0.4,2.9-0.9,3.7-1.4c0.6-0.3,1.1-0.7,1.9-1.3c0.7-0.6,1.3-1.1,1.7-1.7
				c0.4-0.6,0.9-1.1,1-1.7c0.1-0.6,0-0.9-0.4-1.1c-1.3-0.7-2.9-1.3-4.6-1.7c-1.7-0.3-3.4-0.6-5-0.7c-1.7-0.1-3.2-0.1-4.6,0
				c-1.4,0.1-2.4,0.1-3,0.3c-0.7,0.1-1.3,0.4-2,0.7c-0.7,0.3-1.4,0.7-2.2,1c-0.7,0.1-1.1,0.1-1-0.3c0.1-0.3,0.4-0.7,0.9-1.3
				c0.6-0.6,1.1-1,1.9-1.6c0.7-0.6,1.3-0.9,1.7-1.1c0.9-0.3,2.3-0.4,4.3-0.7c2-0.3,4.2-0.4,6.5-0.4c2.3,0,4.6,0,6.9,0.3
				s4.2,0.9,5.6,1.7c1.6,0.9,2.3,1.9,2.3,3.2c0,1.1-0.4,2.4-1.1,3.6c-0.7,1.1-1.7,2.3-3,3.3C899.8,560.6,898.7,561.3,897.7,561.9z"
				/>
		</g>
		<path fill="#2C1D1B" d="M915.6,523c-1.7-1.4-4.3,1-2.6,2.6c28.4,24.4,0.7,58.4-25.4,68.4c-21.2,8.2-48.5,12.2-69.9,2.6
			c-21.2-9.6-31.8-33.3-11.5-51.1c9.5-8.3,22.5-12.3,34.7-14.6c26-4.7,49.3,1.7,73.3,11.5c0.4,0.1,0.7-0.6,0.3-0.7
			c-28-19.7-71.6-21.2-101.6-4.9c-26.5,14.3-29.6,45.3-1.9,60.7c28,15.5,72.3,8.5,97.1-10.6C928.4,571.5,936.5,541.1,915.6,523z"/>
	</g>
	<g>
		<g>
			<g>
				<polygon fill="#493231" points="1018.6,355.8 716.6,530.2 401,345.3 700.3,172.6 				"/>
				<polygon fill="#472F2E" points="1018.6,355.8 1086.7,236.7 768.4,53.5 700.3,172.6 				"/>
				<polygon fill="#2C1D1B" points="1014.7,343.6 1074.7,238.8 772,64.7 712.2,169.4 				"/>
				<polygon fill="#4688E8" points="1008.6,326.8 1046,264.5 764.7,101.3 727.1,163.7 				"/>
				<polygon fill="#382624" points="401,345.3 401,391.5 719.4,574.7 719.4,528.5 				"/>
				<polygon fill="#352322" points="1018.6,355.8 719.4,528.5 719.4,574.7 1042.3,386.5 1107.7,272.4 1086.7,236.7 				"/>
			</g>
			<g>
				<g>
					<path fill="#EA397D" d="M737.4,214.9l-6-0.3l-22.5-13.1c-4.7-2.7-12.9-2.3-18.2,0.7l-16.4,9.5l-4.6-0.3v6.2l0,0
						c0,1.7,0.9,3.4,3.2,4.7l25.5,14.8c4.7,2.7,12.9,2.3,18.2-0.7l16.4-9.5c3-1.7,4.4-4,4.4-6l0,0V214.9z"/>
					<path fill="#FC5988" d="M698.3,231.1l-25.5-14.8c-4.7-2.7-4-7.5,1.3-10.6l16.4-9.5c5.5-3.2,13.6-3.4,18.2-0.7l25.5,14.8
						c4.7,2.7,4,7.5-1.3,10.6l-16.4,9.5C711.2,233.4,703,233.8,698.3,231.1z"/>
				</g>
				<g>
					<path fill="#4688E8" d="M791.5,248l-6-0.3L763,234.7c-4.7-2.7-12.9-2.3-18.2,0.7l-16.4,9.5l-4.6-0.3v6.2l0,0
						c0,1.7,0.9,3.4,3.2,4.7l25.5,14.8c4.7,2.7,12.9,2.3,18.2-0.7l16.4-9.5c3-1.7,4.4-4,4.4-6l0,0L791.5,248L791.5,248z"/>
					<path fill="#73ACFF" d="M752.4,264.4l-25.5-14.8c-4.7-2.7-4-7.5,1.3-10.6l16.4-9.5c5.5-3.2,13.6-3.4,18.2-0.7l25.5,14.8
						c4.7,2.7,4,7.5-1.3,10.6l-16.4,9.5C765.3,266.7,757.1,267.1,752.4,264.4z"/>
				</g>
				<g>
					<path fill="#4688E8" d="M848,281.3l-6-0.3L819.5,268c-4.7-2.7-12.9-2.3-18.2,0.7l-16.4,9.5l-4.6-0.3v6.2l0,0
						c0,1.7,0.9,3.4,3.2,4.7l25.5,14.8c4.7,2.7,12.9,2.3,18.2-0.7l16.4-9.5c3-1.7,4.4-4,4.4-6l0,0V281.3L848,281.3z"/>
					<path fill="#73ACFF" d="M808.9,297.7l-25.5-14.8c-4.7-2.7-4-7.5,1.3-10.6l16.4-9.5c5.5-3.2,13.6-3.4,18.2-0.7l25.5,14.8
						c4.7,2.7,4,7.5-1.3,10.6l-16.4,9.5C821.8,300,813.5,300.4,808.9,297.7z"/>
				</g>
				<g>
					<path fill="#4688E8" d="M905.3,314.6l-6-0.3l-22.5-13.1c-4.7-2.7-12.9-2.3-18.2,0.7l-16.4,9.5l-4.6-0.3v6.2l0,0
						c0,1.7,0.9,3.4,3.2,4.7l25.5,14.8c4.7,2.7,12.9,2.3,18.2-0.7l16.4-9.5c3-1.7,4.4-4,4.4-6l0,0V314.6L905.3,314.6z"/>
					<path fill="#73ACFF" d="M866.1,330.9l-25.5-14.8c-4.7-2.7-4-7.5,1.3-10.6l16.5-9.3c5.5-3.2,13.6-3.4,18.2-0.7l25.5,14.8
						c4.7,2.7,4,7.5-1.3,10.6l-16.4,9.5C879,333.2,870.7,333.5,866.1,330.9z"/>
				</g>
				<g>
					<path fill="#EA397D" d="M962.5,347.9l-6-0.3L934,334.5c-4.7-2.7-12.9-2.3-18.2,0.7l-16.4,9.5l-4.6-0.3v6.2l0,0
						c0,1.7,0.9,3.4,3.2,4.7l25.5,14.8c4.7,2.7,12.9,2.3,18.2-0.7l16.4-9.5c3-1.7,4.4-4,4.4-6l0,0L962.5,347.9L962.5,347.9z"/>
					<path fill="#FC5988" d="M923.4,364.1l-25.5-14.8c-4.7-2.7-4-7.5,1.3-10.6l16.4-9.5c5.5-3.2,13.6-3.4,18.2-0.7l25.5,14.8
						c4.7,2.7,4,7.5-1.3,10.6l-16.4,9.5C936.3,366.5,928.1,366.8,923.4,364.1z"/>
				</g>
			</g>
			<g>
				<g>
					<path fill="#4688E8" d="M684.9,245.2l-6-0.3l-22.5-13.1c-4.7-2.7-12.9-2.3-18.2,0.7l-16.4,9.5l-4.6-0.3v6.2l0,0
						c0,1.7,0.9,3.4,3.2,4.7l25.5,14.8c4.7,2.7,12.9,2.3,18.2-0.7l16.4-9.5c3-1.7,4.4-4,4.4-6l0,0V245.2L684.9,245.2z"/>
					<path fill="#73ACFF" d="M645.9,261.4l-25.5-14.8c-4.7-2.7-4-7.5,1.3-10.6l16.4-9.5c5.5-3.2,13.6-3.4,18.2-0.7l25.5,14.8
						c4.7,2.7,4,7.5-1.3,10.6l-16.4,9.5C658.8,263.8,650.5,264.1,645.9,261.4z"/>
				</g>
				<g>
					<path fill="#4688E8" d="M739.2,278.4l-6-0.3l-22.5-13.1c-4.7-2.7-12.9-2.3-18.2,0.7l-16.4,9.5l-4.6-0.3v6.2l0,0
						c0,1.7,0.9,3.4,3.2,4.7l25.5,14.8c4.7,2.7,12.9,2.3,18.2-0.7l16.4-9.5c3-1.7,4.4-4,4.4-6l0,0V278.4z"/>
					<path fill="#73ACFF" d="M700,294.6l-25.5-14.8c-4.7-2.7-4-7.5,1.3-10.6l16.4-9.5c5.5-3.2,13.6-3.4,18.2-0.7l25.5,14.8
						c4.7,2.7,4,7.5-1.3,10.6l-16.4,9.5C712.9,297.1,704.7,297.4,700,294.6z"/>
				</g>
				<g>
					<path fill="#4688E8" d="M795.5,311.7l-6-0.3L767,298.4c-4.7-2.7-12.9-2.3-18.2,0.7l-16.4,9.5l-4.6-0.3v6.2l0,0
						c0,1.7,0.9,3.4,3.2,4.7l25.5,14.8c4.7,2.7,12.9,2.3,18.2-0.7l16.4-9.5c3-1.7,4.4-4,4.4-6l0,0L795.5,311.7L795.5,311.7z"/>
					<path fill="#73ACFF" d="M756.5,327.9L731,313.1c-4.7-2.7-4-7.5,1.3-10.6l16.4-9.5c5.5-3.2,13.6-3.4,18.2-0.7l25.5,14.8
						c4.7,2.7,4,7.5-1.3,10.6l-16.4,9.5C769.3,330.4,761.1,330.6,756.5,327.9z"/>
				</g>
				<g>
					<path fill="#EA397D" d="M852.8,345l-6-0.3l-22.5-13.1c-4.7-2.7-12.9-2.3-18.2,0.7l-16.4,9.5l-4.6-0.3v6.2l0,0
						c0,1.7,0.9,3.4,3.2,4.7l25.5,14.8c4.7,2.7,12.9,2.3,18.2-0.7l16.4-9.5c3-1.7,4.4-4,4.4-6l0,0V345L852.8,345z"/>
					<path fill="#FC5988" d="M813.8,361.2l-25.5-14.8c-4.7-2.7-4-7.5,1.3-10.6l16.4-9.5c5.5-3.2,13.6-3.4,18.2-0.7l25.5,14.8
						c4.7,2.7,4,7.5-1.3,10.6l-16.4,9.5C826.5,363.5,818.3,363.9,813.8,361.2z"/>
				</g>
				<g>
					<path fill="#EA397D" d="M910,378.1l-6-0.3l-22.5-13.1c-4.7-2.7-12.9-2.3-18.2,0.7l-16.4,9.5l-4.6-0.3v6.2l0,0
						c0,1.7,0.9,3.4,3.2,4.7l25.5,14.8c4.7,2.7,12.9,2.3,18.2-0.7l16.4-9.5c3-1.7,4.4-4,4.4-6l0,0L910,378.1L910,378.1z"/>
					<path fill="#FC5988" d="M871,394.5l-25.5-14.8c-4.7-2.7-4-7.5,1.3-10.6l16.4-9.5c5.5-3.2,13.6-3.4,18.2-0.7l25.5,14.8
						c4.7,2.7,4,7.5-1.3,10.6l-16.4,9.5C883.8,396.8,875.6,397.2,871,394.5z"/>
				</g>
			</g>
			<g>
				<g>
					<path fill="#4688E8" d="M632.6,275.6l-6-0.3L604,262.2c-4.7-2.7-12.9-2.3-18.2,0.7l-16.4,9.5l-4.6-0.3v6.2l0,0
						c0,1.7,0.9,3.4,3.2,4.7l25.5,14.8c4.7,2.7,12.9,2.3,18.2-0.7l16.4-9.5c3-1.7,4.4-4,4.4-6l0,0V275.6L632.6,275.6z"/>
					<path fill="#73ACFF" d="M593.4,291.9l-25.5-14.8c-4.7-2.7-4-7.5,1.3-10.6l16.4-9.5c5.5-3.2,13.6-3.4,18.2-0.7l25.5,14.8
						c4.7,2.7,4,7.5-1.3,10.6l-16.4,9.5C606.3,294.2,598.1,294.5,593.4,291.9z"/>
				</g>
				<g>
					<path fill="#4688E8" d="M686.7,308.8l-6-0.3l-22.5-13.1c-4.7-2.7-12.9-2.3-18.2,0.7l-16.4,9.5l-4.6-0.3v6.2l0,0
						c0,1.7,0.9,3.4,3.2,4.7l25.5,14.8c4.7,2.7,12.9,2.3,18.2-0.7l16.4-9.5c3-1.7,4.4-4,4.4-6l0,0L686.7,308.8L686.7,308.8z"/>
					<path fill="#73ACFF" d="M647.5,325.1L622,310.3c-4.7-2.7-4-7.5,1.3-10.6l16.4-9.5c5.5-3.2,13.6-3.4,18.2-0.7l25.5,14.8
						c4.7,2.7,4,7.5-1.3,10.6l-16.4,9.5C660.4,327.5,652.2,327.8,647.5,325.1z"/>
				</g>
				<g>
					<path fill="#4688E8" d="M743.2,342.1l-6-0.3l-22.5-13.1c-4.7-2.7-12.9-2.3-18.2,0.7l-16.4,9.5l-4.6-0.3v6.2l0,0
						c0,1.7,0.9,3.4,3.2,4.7l25.5,14.8c4.7,2.7,12.9,2.3,18.2-0.7l16.4-9.5c3-1.7,4.4-4,4.4-6l0,0V342.1z"/>
					<path fill="#73ACFF" d="M704,358.3l-25.5-14.8c-4.7-2.7-4-7.5,1.3-10.6l16.4-9.5c5.5-3.2,13.6-3.4,18.2-0.7l25.5,14.8
						c4.7,2.7,4,7.5-1.3,10.6l-16.4,9.5C716.9,360.8,708.6,361.1,704,358.3z"/>
				</g>
				<g>
					<path fill="#EA397D" d="M800.4,375.4l-6-0.3l-22.5-13.1c-4.7-2.7-12.9-2.3-18.2,0.7l-16.4,9.5l-4.6-0.3v6.2l0,0
						c0,1.7,0.9,3.4,3.2,4.7l25.5,14.8c4.7,2.7,12.9,2.3,18.2-0.7l16.4-9.5c3-1.7,4.4-4,4.4-6l0,0L800.4,375.4L800.4,375.4z"/>
					<path fill="#FC5988" d="M761.3,391.6l-25.5-14.8c-4.7-2.7-4-7.5,1.3-10.6l16.4-9.5c5.5-3.2,13.6-3.4,18.2-0.7l25.5,14.8
						c4.7,2.7,4,7.5-1.3,10.6l-16.4,9.5C774.2,394.1,765.8,394.3,761.3,391.6z"/>
				</g>
				<g>
					<path fill="#EA397D" d="M857.7,408.5l-6-0.3l-22.5-13.1c-4.7-2.7-12.9-2.3-18.2,0.7l-16.4,9.5l-4.6-0.3v6.2l0,0
						c0,1.7,0.9,3.4,3.2,4.7l25.5,14.8c4.7,2.7,12.9,2.3,18.2-0.7l16.4-9.5c3-1.7,4.4-4,4.4-6l0,0L857.7,408.5L857.7,408.5z"/>
					<path fill="#FC5988" d="M818.5,424.9L793,410.1c-4.7-2.7-4-7.5,1.3-10.6l16.4-9.5c5.5-3.2,13.6-3.4,18.2-0.7l25.5,14.8
						c4.7,2.7,4,7.5-1.3,10.6l-16.4,9.5C831.4,427.2,823.2,427.6,818.5,424.9z"/>
				</g>
			</g>
			<g>
				<g>
					<path fill="#4688E8" d="M580.1,305.8l-6-0.3l-22.5-13.1c-4.7-2.7-12.9-2.3-18.2,0.7l-16.4,9.5l-4.6-0.3v6.2l0,0
						c0,1.7,0.9,3.4,3.2,4.7l25.5,14.8c4.7,2.7,12.9,2.3,18.2-0.7l16.4-9.5c3-1.7,4.4-4,4.4-6l0,0V305.8z"/>
					<path fill="#73ACFF" d="M541.1,322.2l-25.5-14.8c-4.7-2.7-4-7.5,1.3-10.6l16.4-9.5c5.5-3.2,13.6-3.4,18.2-0.7l25.5,14.8
						c4.7,2.7,4,7.5-1.3,10.6l-16.4,9.5C554,324.5,545.6,324.9,541.1,322.2z"/>
				</g>
				<g>
					<path fill="#4688E8" d="M634.3,339.1l-6-0.3l-22.5-13.1c-4.7-2.7-12.9-2.3-18.2,0.7l-16.4,9.5l-4.6-0.3v6.2l0,0
						c0,1.7,0.9,3.4,3.2,4.7l25.5,14.8c4.7,2.7,12.9,2.3,18.2-0.7l16.4-9.5c3-1.7,4.4-4,4.4-6l0,0V339.1L634.3,339.1z"/>
					<path fill="#73ACFF" d="M595.1,355.5l-25.5-14.8c-4.7-2.7-4-7.5,1.3-10.6l16.4-9.5c5.5-3.2,13.6-3.4,18.2-0.7l25.5,14.8
						c4.7,2.7,4,7.5-1.3,10.6l-16.4,9.5C608,357.8,599.9,358.2,595.1,355.5z"/>
				</g>
				<g>
					<path fill="#4688E8" d="M690.7,372.4l-6-0.3l-22.5-13.1c-4.7-2.7-12.9-2.3-18.2,0.7l-16.4,9.5L623,369v6.2l0,0
						c0,1.7,0.9,3.4,3.2,4.7l25.5,14.8c4.7,2.7,12.9,2.3,18.2-0.7l16.4-9.5c3-1.7,4.4-4,4.4-6l0,0L690.7,372.4L690.7,372.4z"/>
					<path fill="#73ACFF" d="M651.7,388.7L626.1,374c-4.7-2.7-4-7.5,1.3-10.6l16.4-9.5c5.5-3.2,13.6-3.4,18.2-0.7l25.5,14.8
						c4.7,2.7,4,7.5-1.3,10.6l-16.4,9.5C664.4,391,656.2,391.3,651.7,388.7z"/>
				</g>
				<g>
					<path fill="#EA397D" d="M805.1,439l-6-0.3l-22.5-13.1c-4.7-2.7-12.9-2.3-18.2,0.7l-16.4,9.5l-4.6-0.3v6.2l0,0
						c0,1.7,0.9,3.4,3.2,4.7l25.5,14.8c4.7,2.7,12.9,2.3,18.2-0.7l16.4-9.5c3-1.7,4.4-4,4.4-6l0,0L805.1,439L805.1,439z"/>
					<path fill="#FC5988" d="M766.1,455.2l-25.5-14.8c-4.7-2.7-4-7.5,1.3-10.6l16.4-9.5c5.5-3.2,13.6-3.4,18.2-0.7l25.5,14.8
						c4.7,2.7,4,7.5-1.3,10.6l-16.4,9.5C778.9,457.6,770.7,457.9,766.1,455.2z"/>
				</g>
			</g>
			<g>
				<g>
					<path fill="#4688E8" d="M528.1,336.2l-6-0.3l-22.5-13.1c-4.7-2.7-12.9-2.3-18.2,0.7l-16.4,9.5l-4.6-0.3v6.2l0,0
						c0,1.7,0.9,3.4,3.2,4.7l25.5,14.8c4.7,2.7,12.9,2.3,18.2-0.7l16.4-9.5c3-1.7,4.4-4,4.4-6l0,0V336.2z"/>
					<path fill="#73ACFF" d="M489,352.5l-25.4-14.6c-4.7-2.7-4-7.5,1.3-10.6l16.4-9.5c5.5-3.2,13.6-3.4,18.2-0.7l25.5,14.8
						c4.7,2.7,4,7.5-1.3,10.6l-16.4,9.5C501.9,354.9,493.7,355.2,489,352.5z"/>
				</g>
				<g>
					<path fill="#4688E8" d="M582.2,369.5l-6-0.3l-22.5-13.1c-4.7-2.7-12.9-2.3-18.2,0.7l-16.4,9.5l-4.6-0.3v6.2l0,0
						c0,1.7,0.9,3.4,3.2,4.7l25.5,14.8c4.7,2.7,12.9,2.3,18.2-0.7l16.4-9.5c3-1.7,4.4-4,4.4-6l0,0V369.5z"/>
					<path fill="#73ACFF" d="M543.2,385.7L517.7,371c-4.7-2.7-4-7.5,1.3-10.6l16.4-9.5c5.5-3.2,13.6-3.4,18.2-0.7l25.5,14.8
						c4.7,2.7,4,7.5-1.3,10.6l-16.4,9.5C556.1,388.2,547.8,388.5,543.2,385.7z"/>
				</g>
				<g>
					<path fill="#4688E8" d="M638.7,402.8l-6-0.3l-22.5-13.1c-4.7-2.7-12.9-2.3-18.2,0.7l-16.4,9.5l-4.6-0.3v6.2l0,0
						c0,1.7,0.9,3.4,3.2,4.7l25.5,14.8c4.7,2.7,12.9,2.3,18.2-0.7l16.4-9.5c3-1.7,4.4-4,4.4-6l0,0V402.8L638.7,402.8z"/>
					<path fill="#73ACFF" d="M599.6,419L574,404.2c-4.7-2.7-4-7.5,1.3-10.6l16.4-9.5c5.5-3.2,13.6-3.4,18.2-0.7l25.5,14.8
						c4.7,2.7,4,7.5-1.3,10.6l-16.4,9.5C612.5,421.5,604.3,421.7,599.6,419z"/>
				</g>
				<g>
					<path fill="#EA397D" d="M753.2,469.2l-6-0.3l-22.5-13.1c-4.7-2.7-12.9-2.3-18.2,0.7l-16.4,9.5l-4.6-0.3v6.2l0,0
						c0,1.7,0.9,3.4,3.2,4.7l25.5,14.8c4.7,2.7,12.9,2.3,18.2-0.7l16.4-9.5c3-1.7,4.4-4,4.4-6l0,0V469.2z"/>
					<path fill="#FC5988" d="M714.1,485.6l-25.5-14.8c-4.7-2.7-4-7.5,1.3-10.6l16.4-9.5c5.5-3.2,13.6-3.4,18.2-0.7l25.5,14.8
						c4.7,2.7,4,7.5-1.3,10.6l-16.4,9.5C727,487.9,718.8,488.3,714.1,485.6z"/>
				</g>
			</g>
			<g>
				<path fill="#4688E8" d="M741.9,405.4l-22.5-13.1c-4.7-2.7-12.9-2.3-18.2,0.7c0,0-46.6,27.3-51.9,30.3l-16.4,9.5l-4.6-0.3v6.2
					l0,0c0,1.7,0.9,3.4,3.2,4.7l25.5,14.8c4.7,2.7,12.9,2.3,18.2-0.7l11.5-6.6l0,0l0,0l4.9-2.7c0.1,0,0.1-0.1,0.3-0.1l45.6-26.7
					l6-3.4c3-1.7,4.4-4,4.4-6l0,0V406L741.9,405.4z"/>
				<path fill="#73ACFF" d="M744.8,401.2l-25.5-14.8c-4.7-2.7-12.9-2.3-18.2,0.7l-8.3,4.7l0,0l-60,35c-5.5,3.2-6,7.9-1.3,10.6
					l25.5,14.8c4.7,2.7,12.9,2.3,18.2-0.7l68.4-39.7C748.9,408.7,749.5,404,744.8,401.2z"/>
			</g>
		</g>
		<g>
			<path fill="#232221" d="M534.5,304.4l3.9,2.2l11.9-6.9l-3.3-1.9l2.9-1.7c2.3,0.9,4.2,1.3,6.3,1.4l3,1.7l-16.6,9.6l3.3,1.9
				l-3.9,2.2l-11.3-6.5L534.5,304.4z"/>
		</g>
		<g>
			<path fill="#232221" d="M589.5,339.5c9.5-0.3,16.2-0.4,19.1-2.2c2-1.1,2.2-2.3,0.6-3.3c-1.3-0.7-3.3-0.7-5.3-0.6l0.3-2.7
				c3.9-0.3,6.6,0.1,9.2,1.6c3.4,2,3.3,4.9-0.7,7.2c-3.4,2-9.9,2.4-16.2,2.9c1,0.4,2.4,1.1,3.2,1.6l3.6,2l-4,2.3l-12.5-7.2
				L589.5,339.5z"/>
		</g>
		<g>
			<path fill="#232221" d="M644.5,371.8l4.9-0.6c-0.1,1.3,0.3,2.6,1.9,3.4c1.7,1,3.7,1.1,5.3,0.3c1.9-1,2-2.3-1.9-4.4l3.3-1.9
				c3.2,1.9,5.3,1.7,6.9,0.9c1.4-0.9,1.4-1.7,0.1-2.6c-1.3-0.7-2.9-0.9-5.2-0.9l0.9-2.9c3.3,0,6,0.4,8.2,1.7c3.6,2.2,4,4.7,0.6,6.7
				c-2.2,1.3-4.7,1.4-7.5,0.9l-0.1,0.1c1.3,1.6,1.1,3.4-1.4,4.9c-3.9,2.2-9,1.7-12.6-0.4C644.9,375.4,644.1,373.5,644.5,371.8z"/>
		</g>
		<g>
			<path fill="#232221" d="M690.7,416.3l-4.9-2.9l3.3-2l4.9,2.9l5.9-3.4l3,1.7L697,416l4.9,2.9l-3.3,2l-4.9-2.9l-5.9,3.4l-3-1.7
				L690.7,416.3z"/>
		</g>
		<g>
			<path fill="#232221" d="M758.4,369.1l3.3-2l12.9,7.5l-3.3,2L758.4,369.1z"/>
		</g>
		<g>
			<path fill="#232221" d="M543.3,363.8c7-4,13.1-4.6,16.9-2.4c3.7,2.2,2.7,5.7-4.2,9.8c-7,4-13.2,4.7-17.1,2.6
				C535.2,371.4,536.3,367.8,543.3,363.8z M552.1,368.8c5.6-3.3,5.9-4.6,4.4-5.5c-1.4-0.9-3.7-0.7-9.3,2.6c-5.6,3.2-5.9,4.7-4.6,5.5
				C544.1,372.3,546.5,372,552.1,368.8z"/>
		</g>
		<g>
			<path fill="#232221" d="M486.4,331.4l12.9,7.5l-3.3,2l-12.9-7.5L486.4,331.4z M494,327.1l12.9,7.5l-3.3,1.9l-12.9-7.5L494,327.1z
				"/>
		</g>
		<g>
			<path fill="#232221" d="M603.5,398.9c1.7-1,4-1.1,5.5-0.3c1.4,0.9,1.1,2.2-0.6,3.2s-4,1.1-5.5,0.3
				C601.6,401.4,601.7,399.9,603.5,398.9z"/>
		</g>
		<g>
			<path fill="#232221" d="M593.7,275.7l-7.7-4.4l3.3-1.9L608,266l5,2.9l-11.9,6.9l2,1.1l-3.6,2.2l-2-1.1l-4.9,2.9l-3.9-2.2
				L593.7,275.7z M597.3,273.7l3.3-1.9c1.3-0.7,3.4-1.9,4.7-2.6h-0.1c-1.6,0.4-3.3,0.7-4.9,1.1l-6.7,1.1L597.3,273.7z"/>
		</g>
		<g>
			<path fill="#232221" d="M640.9,307.7l4.9-0.7c0,1.3,0.3,2.6,1.9,3.4c1.9,1,4,1.1,6.2-0.1c2-1.1,2-2.4,0.4-3.4
				c-1-0.6-1.9-0.7-3.6-0.9l-0.4-1.9l10.9-5.7l10,5.7l-4,2.3l-6.5-3.7l-4.2,2c1,0.1,1.7,0.4,2.4,0.9c3,1.7,3.6,4.4-0.7,6.9
				c-4.6,2.6-10.2,2.4-13.6,0.4C641.3,311.3,640.6,309.6,640.9,307.7z"/>
		</g>
		<g>
			<path fill="#232221" d="M704.3,336.2c7.6-4.4,14.5-4.4,18.2-2.3c2.3,1.3,2.9,3,2.7,4.4l-5,0.4c0.1-0.9-0.3-1.9-1.3-2.4
				c-2-1.1-5.2-1.1-10,1.6c2.3-0.3,4.6,0.1,5.7,0.9c3,1.7,3.3,4.2-1,6.7c-4.3,2.4-9.6,2.4-12.8,0.6
				C697.4,344.1,697.1,340.4,704.3,336.2z M709.8,343.3c2.2-1.3,2-2.3,0.7-3c-0.9-0.6-2.6-0.9-4.7-0.4c-2.9,2-2.7,3.3-1.4,4
				C705.4,344.7,707.5,344.7,709.8,343.3z"/>
		</g>
		<g>
			<path fill="#232221" d="M657.8,239.3l-7.9-4.6l4-2.3l12.3,7.2l-2.9,1.7c-9.9,1-14.2,2.9-22.5,7.3l-4.2-2.4
				C643.8,242.3,649.2,240.4,657.8,239.3z"/>
		</g>
		<g>
			<path fill="#232221" d="M695.8,276c2.4-1.4,5.3-1.6,8-1.1l0.1-0.1c-0.1-1.4,0.3-2.9,2.4-4.2c3.4-2,8-1.9,11.3,0
				c3.3,1.9,3.2,4.4-0.3,6.3c-2,1.1-4.6,1.4-6.7,1.3l-0.1,0.1c0.6,1.6,0.4,3.3-2.3,4.9c-3.2,1.9-8.2,1.9-11.9-0.3
				C692.8,280.9,692.4,278,695.8,276z M704.6,280.9c1.9-1,1-2.3-0.1-4.2c-1.6,0-3.3,0.4-4.6,1.1c-1.9,1-1.6,2.4-0.1,3.3
				C701,281.7,702.9,281.9,704.6,280.9z M713.9,275.3c1.6-0.9,1.9-2,0.4-2.7c-1.1-0.6-2.7-0.7-4.3,0.1c-1.7,1-1.3,2.2-0.3,3.6
				C711.3,276.3,712.8,275.9,713.9,275.3z"/>
		</g>
		<g>
			<path fill="#232221" d="M748.2,310.4l5-0.4c-0.1,0.7,0.3,1.9,1.3,2.4c2,1.1,5.2,1.1,10-1.6c-2.3,0.3-4.6-0.1-5.7-0.9
				c-3-1.7-3.3-4.2,1-6.7c4.3-2.4,9.6-2.4,12.8-0.6c3.4,2,3.7,5.6-3.4,9.8c-7.6,4.4-14.5,4.4-18.2,2.3
				C748.6,313.4,748.1,311.7,748.2,310.4z M767.7,309c2.9-2,2.7-3.3,1.4-4c-1.1-0.7-3.3-0.7-5.6,0.6c-2.2,1.3-2,2.3-0.6,3
				C764,309.1,765.6,309.4,767.7,309z"/>
		</g>
		<g>
			<path fill="#232221" d="M811.2,342.7l5-1l-1.4-2.6l3-1l2.4,2.3l4.2-2l2.2,1.3l-3.4,2.4l4,1.4l-1.6,1.7l-4.6-0.9l-1.7,2.9
				l-3.2-0.1l0.6-3l-5.2,0.3L811.2,342.7z"/>
		</g>
		<g>
			<path fill="#232221" d="M869.6,378.6c1.4-0.9,3.4-0.9,4.7-0.1s1.3,1.9-0.3,2.7c-1.4,0.9-3.4,0.9-4.7,0.1
				C868.1,380.6,868.1,379.4,869.6,378.6z M872.9,371.8l12.9,7.5l-3.3,2l-12.9-7.5L872.9,371.8z M881.2,371.8
				c1.4-0.9,3.4-0.9,4.7-0.1c1.3,0.7,1.3,1.9-0.3,2.7c-1.4,0.9-3.4,0.9-4.7,0.1C879.7,373.8,879.7,372.7,881.2,371.8z"/>
		</g>
		<g>
			<path fill="#232221" d="M697.1,207.9c7-4,15.1-4,19.7-1.4c2.3,1.3,3,3.2,2.7,4.7l-5.2,0.4c0-1.1-0.3-2-1.6-2.9
				c-2.4-1.4-7-1.1-11.2,1.3c-4.3,2.4-5.2,4.9-2.4,6.5c1.4,0.9,3.6,1,5.5,0.9l-0.9,3c-3.6,0.3-6.6-0.3-9-1.6
				C690.2,216.3,690.1,211.9,697.1,207.9z"/>
		</g>
		<g>
			<path fill="#232221" d="M913,336.7c5.9-3.4,12.2-3.7,16.5-1.3c4.3,2.4,3.7,6.2-2.2,9.5c-5.9,3.4-12.3,3.9-16.6,1.3
				C906.6,343.8,907.1,340.1,913,336.7z M923.8,342.8c3.6-2.2,4.4-4.2,2.3-5.3c-2.2-1.3-5.7-0.7-9.3,1.3c-3.6,2.2-4.6,4.2-2.4,5.5
				C916.5,345.6,920.1,344.9,923.8,342.8z"/>
			<path fill="#232221" d="M939.4,341.4l3.6,2.2l-4.9,7.6l-2.4,3.2h0.1c1.7-1.1,4-2.9,6.2-4l6.5-3.7l3.4,2l-18.1,10.5l-3.6-2.2
				l4.9-7.6l2.4-3.2h-0.1c-1.9,1.3-4,2.9-6.2,4l-6.5,3.7l-3.4-2L939.4,341.4z"/>
		</g>
		<g>
			<path fill="#232221" d="M810.9,397.8c6-3.4,12.9-3.4,16.9-1.1c2,1.1,2.6,2.7,2.4,4.2l-4.4,0.4c0-1-0.1-1.7-1.3-2.4
				c-2.2-1.3-6-1-9.8,1.1s-4.4,4.3-2.2,5.6c1.3,0.7,3,0.9,4.7,0.9l-0.7,2.6c-3,0.3-5.7-0.1-7.7-1.4
				C805,405.1,804.9,401.4,810.9,397.8z"/>
			<path fill="#232221" d="M835,401.1l9.9,5.7l-3.4,2l-6.3-3.6l-3.6,2.2l5.3,3.2l-3.4,2l-5.3-3.2l-4.2,2.4l6.6,3.7l-3.4,2l-10-5.9
				L835,401.1z"/>
		</g>
		<g>
			<path fill="#232221" d="M768.4,423.3l3.9,2.3l-5.6,6.2c-0.7,0.9-1.6,1.6-2.4,2.4h0.1c1.4-0.4,2.9-1,4.3-1.4l10.6-3.2l3.9,2.3
				l-18.1,10.5l-3.3-1.9l6.6-3.9c1.7-1,4.7-2.4,6.6-3.3h-0.1l-5.6,1.7l-9.2,2.7l-2-1.1l4.7-5.3l3-3.2h-0.1c-1.6,1.1-3.9,2.9-5.7,3.9
				l-6.6,3.9l-3.2-1.9L768.4,423.3z"/>
			<path fill="#232221" d="M779.6,441.8l-4.3-2.4l2.9-1.7l4.3,2.4l5.2-3l2.6,1.4l-5.2,3l4.3,2.4l-2.9,1.7l-4.3-2.4l-5.2,3l-2.6-1.4
				L779.6,441.8z"/>
		</g>
		<g>
			<path fill="#232221" d="M716.8,455.3l3.9,2.3l-5.6,6.2c-0.7,0.9-1.6,1.6-2.4,2.4h0.1c1.4-0.4,2.9-1,4.3-1.4l10.6-3.2l3.9,2.3
				l-18.1,10.5l-3.3-1.9l6.6-3.9c1.7-1,4.7-2.4,6.6-3.3h-0.1l-5.6,1.7l-9.2,2.7l-2-1.1l4.7-5.3l3-3.2h-0.1c-1.6,1.1-3.9,2.9-5.7,3.9
				l-6.6,3.9l-3.2-1.9L716.8,455.3z"/>
			<path fill="#232221" d="M724.7,471.1l5.9,3.4l-2.9,1.7l-5.9-3.4L724.7,471.1z"/>
		</g>
		<g>
			<path fill="#232221" d="M772.7,242l2.4,1.4l-31.6,6.9l-2.4-1.4L772.7,242z M751.2,237.3c4.2-2.4,8.6-2.7,11.2-1.3
				c2.6,1.6,2.2,4-2.2,6.5c-4.2,2.4-8.6,2.7-11.3,1.3C746.3,242.1,746.9,239.7,751.2,237.3z M757.4,240.8c3-1.7,3.3-2.7,2.3-3.3
				c-0.9-0.6-2.7-0.4-5.7,1.3s-3.3,2.7-2.4,3.3C752.5,242.7,754.4,242.6,757.4,240.8z M756.1,249.9c4.2-2.4,8.6-2.7,11.2-1.3
				c2.6,1.6,2.2,4-2.2,6.5c-4.2,2.4-8.6,2.7-11.2,1.3C751.4,254.8,751.9,252.3,756.1,249.9z M762.4,253.5c3-1.7,3.3-2.7,2.3-3.3
				c-0.9-0.6-2.7-0.4-5.7,1.3c-3,1.7-3.3,2.7-2.4,3.3C757.5,255.3,759.4,255.2,762.4,253.5z"/>
		</g>
		<g>
			<path fill="#232221" d="M801.4,280l5-0.4c-0.1,0.7,0.3,1.9,1.3,2.4c2,1.1,5.2,1.1,10-1.6c-2.3,0.3-4.6-0.1-5.7-0.9
				c-3-1.7-3.3-4.2,1-6.7c4.3-2.4,9.6-2.4,12.8-0.6c3.4,2,3.7,5.6-3.4,9.8c-7.6,4.4-14.5,4.4-18.2,2.3
				C801.8,283.2,801.3,281.4,801.4,280z M820.9,278.6c2.9-2,2.7-3.3,1.4-4c-1.1-0.7-3.3-0.7-5.6,0.6c-2.2,1.3-2,2.3-0.6,3
				C817.2,278.7,818.8,279,820.9,278.6z"/>
		</g>
		<g>
			<polygon fill="#232221" points="857.8,317.3 867.3,305.5 869.8,307.6 865.8,312.4 890.2,307.6 890.8,310.7 			"/>
		</g>
	</g>
	<g>
		<path fill="#2C1D1B" d="M536.2,506.5c0,0-16.9,5.2-21.1,10.9c-4.3,5.7-6.3,10.3-7.2,17.4c-0.9,7,2.2,11.5,9.6,11.2
			c6.6-0.3,9.9-3.7,11-7.5c0,0,18.6-2,28.1-8.6C566.3,523,552,504.8,536.2,506.5z"/>
		<path fill="#2C1D1B" d="M586.1,418.6c-14.9-3.3-33.4,2.3-49.2,9.6c-0.4,0-0.7,0.1-1.1,0.3c-18.8,9-63,30.1-62.7,30.7
			c-7,14.8,3.6,37.7,23.1,35.3c10,6.2,21.4,6.7,31.6,2.9c-0.4,0.7-7.5,10.6-12.8,19.9c5.5,2.7,7.5,5.2,15.8,12.3
			c9-3.7,22.8-15.6,30.6-21.5c7.7-5.9,34.3-34.6,34.3-58.8C605.6,440.4,603.3,422.5,586.1,418.6z"/>
		<path fill="#3F2A28" d="M589.1,523.4c-0.9-10.6-7.3-25.4-11.8-32.1c-11.9-17.6-16.4-29.3-29.1-37.3c-15.3-9.8-25,7.7-41,10
			c-0.1-0.1-16.8-6.6-17.9-7.3c0.3,0.4,0.4,25.1,6.9,37.7c3.7,7.3,13.8,13.6,28.7,14.1c6,10.3,15.5,17.8,18.1,19.1
			c-4.6,3.7-9.9,6.3-17.8,13.6c-11.3,10.6-25.2,22.5-38.9,31.8c3.4,1.9,6.7,5,8.2,6.9c2.2,2.7,3.4,5.3,4.2,9.9
			c25.5-5.9,45.8-19.2,66.7-34c7.6-5.3,11.6-10.8,17.1-17.4C592.8,536.8,592.4,526.6,589.1,523.4z"/>
		<path fill="#E8B5D7" d="M533.3,331.2c0,0-18.6-20.4-37.2,2.9c-5.7,7.2-6.5,13.1-8,17.1c-6.9,11.8-18.1,28.5-22.2,39.7
			c-1.7,4.6-0.7,11.9,0.7,13.8c2.9,3.9,33.7,15.6,43.5,4.9C529.9,387.7,533.3,331.2,533.3,331.2z"/>
		<g>
			<path fill="#FFC9B6" d="M564.3,340.8l-15.1,12.3c-8-2.9-14.2-12.5-17.8-21.7c3-2.4,13.5-8.3,14.2-11.5c-3.2-8.8,1.6-16.1,9.8-24
				c8.5-8.2,23.8-8.2,33-0.9c1.3,0.6,8.2,5.5,7.3,13.8c-1,9.3-6.3,31.6-14.2,35.6C575.9,347.4,569.6,342.8,564.3,340.8z"/>
			<path fill="#FC5988" d="M542.6,295.9c0.9-7,4.6-13.5,12.2-16.9c8.6-3.9,23.8-4.4,30.7,3.3c0.1-0.3,0.1-0.6,0.3-0.7
				c2.2-2.7,5.6-2.3,8.2-0.4c2,1.4,3.4,3.7,4.4,6.2c1.4-0.4,3.2-0.6,4.6,0.1c5,2,4.7,9.2,3,13.2c-3.6,8.6-17.1,17.9-27.1,15.5
				c0.4,5-1.9,7.6-5.9,10.9c-6.2,5-15.2,5.3-22.2,1.9c-8-4-15.2-13.1-14.6-22.4C536.5,302.1,539,297.9,542.6,295.9z"/>
			<path fill="#FFC9B6" d="M582.5,318.3c0,0-1.9-5.9-7.3-2.2c-5.5,3.6,1,14.5,1,14.5L582.5,318.3z"/>
		</g>
		<path fill="#F2C9E3" d="M527.7,327.8c9.2,4,8.6,5.6,27.7,20.4c19.1,14.8,20.1,23.4,18.4,32.4c-1.7,9.2-3,13.8-10.5,31.6
			c-9.5,22.7-21.7,34.9-21.7,34.9s6.5,2,9.5,3.9c3,1.9,3.7,11.9,0.4,15.1c-9.5,8.9-48.5,31.3-80.6-1c1.4-25.2,10.6-76.5,17.1-96.4
			C495.1,346,519.5,324.2,527.7,327.8z"/>
		<path fill="#E8B5D7" d="M539.3,452.6c0,0-11.9,6.5-23,9.3c-11,2.9-12.3,2.6-20.2,4c3,0,20.1,1.7,27.1-2.4
			C530.4,459.2,539.3,452.6,539.3,452.6z"/>
		<path fill="#E8B5D7" d="M502,447.3c0,0,6.3,5.2,15.8,4.3s15.3-2,15.3-2s-10.2-2.9-15.3-2.3C512.5,448,502,447.3,502,447.3z"/>
		<path fill="#2C1D1B" d="M499.5,563.5c0,0-13.9-1-19.5,0c-5.6,1-6.5,11.2-11.5,16.1c-5,4.9-19.4,7.3-23.2,17.2
			c-3.9,9.9,3.2,25.4,12.2,21.5c14.8-6.2,44.6-31.1,44.6-31.1S508.9,576.5,499.5,563.5z"/>
		<path fill="#FFC9B6" d="M666.4,407.1c-3.3,1.4-5,2-8.3,3.3c0.3-3,3.6-5.3,2.3-8.3c-1-2.3-3.2-0.1-5.9,3.6s-4.9,7.5-8.5,9.9
			c0,0-4,11.2,0,13.2c4,2,18.9-1,23.1-2.7c4.2-1.7,11.3-4,15.3-11.9C689.2,404.1,675.5,403.4,666.4,407.1z"/>
		<path fill="#E8B5D7" d="M647.2,414.4c-13.2,0-34.4-1.6-45.6-0.9c0,0-3.2-11.9-14.1-25.8c-4.2-19.9-15.9-30.8-24-32.6
			c-11-2.4-20.4,5.7-20.4,17.6c0,23.5,10.5,36,16.6,37c-0.4,12.5,16.1,27,24.1,27.8c2.6,5.9,7.3,11.6,15.8,10.9
			c14.9-1.4,42.2-14.5,52.1-18.8C653.4,426,652.8,419.7,647.2,414.4z"/>
	</g>
	<g>
		<path fill="#FFB9A4" d="M1041.8,461.8c1.7-1.6,2.4-12.8,2.9-24c-2-16.6,3.2-44.8,3.2-61.8c0-10.2-1.6-33.1-3.7-49.3
			c-1.7-13.3-4.3-25.1-5.5-38.4c-4.2-17.9-5.2-36.4-3.2-55.2c14.8,5.2,31.6,7.2,47.5,6.9c1.7,13.6,1.6,27.4-1,40.9
			c-1.6,8.2-4.2,15.8-7,23.5c-2.2,5.7-4.3,11.2-4.6,17.2c-0.3,6.9,6.2,17.9,7.5,24.5c3.9,19.8-4.3,31.8-10,57.7
			c-2.3,10.3-2.7,17.9-3,21.7c2.2,2.4,3,3.9,3.9,5.6c3.6,6.6-2,12.3-4.9,17.6c-2.9,5.3-1.1,20.8-4.6,23.2
			c-3.4,2.4-14.9,9.9-22.7,6.3C1030.8,475.7,1037.3,466.1,1041.8,461.8z"/>
		<path fill="#FFC9B6" d="M959.9,111.5c5.2,6.6,11,9.5,13.3,9.2c2.3-0.3-0.7-4.4-2.3-9.2c-1.6-4.7,2.7-3.4,6.7,2
			c3.9,5.5,2,11.3,4.7,13.3s18.4,6.9,26.5,8.5c3.3,0.6,10.3,2.4,14.5,3.6c5.2-8.5,18.6-30.7,26-46.5c8.5-18.1,29.6-7.2,29.6-7.2
			l-15.2,41.3c0,0-23.5,23-32.3,33.4c-4.7,5.7-10.5,3.7-21.5,1.4c-11-2.3-27.5-18.1-37.4-25c-5.9-4.2-23.2-9.8-24.2-21.7
			C947.3,103.3,954.9,104.9,959.9,111.5z"/>
		<g>
			<path fill="#2C1D1B" d="M1069.8,440.7c-3.3,10.3-7.6,27.3-8,32c-0.4,4.9-8.5,11.2-22.1,10.6c-13.6-0.6-8.6-7.2-5.5-12
				c1.4-2.3,2.9-4.2,4.2-6.2c0,0,2.2,4,7.9,4.7c5.6,0.7,8-0.1,11-5.6c2.9-5.5,7.3-21.5,9.2-26.1c1.7-4.6-1.7-12.8-1.7-12.8l0,0
				C1068.4,429.9,1072.5,432.8,1069.8,440.7z"/>
			<path fill="#2C1D1B" d="M1070.4,438.8v23.8c0,0.4-0.7,0.9-1.7,0.9c-1,0-1.7-0.3-1.7-0.9v-18.4L1070.4,438.8z"/>
		</g>
		<path fill="#FFC9B6" d="M1086.7,479.1c1.4-1.7,1.1-12.9,0.3-24.1c-3.9-16.4-1.6-44.8-3.4-61.8c-1-10.2-5.2-32.9-8.9-48.6
			c-3.2-13.1-6.9-24.4-9.5-37.7c-6-17.5-9-35.7-9-54.5c15.2,3.6,32.1,3.9,48.1,1.9c3.2,13.3,4.4,27,3.3,40.7
			c-0.7,8.3-2.6,16.2-4.6,24.2c-1.4,5.9-3,11.5-2.7,17.6c0.4,6.9,6.5,18.9,8.2,25.2c6.5,22.5,0.7,30.4-2.3,56.5
			c-1.1,10.5-0.9,18.1-0.7,21.9c2.4,2.3,3.4,3.6,4.4,5.2c4.2,6.2-0.7,12.5-3,18.1s1,20.8-2.2,23.5c-3.2,2.9-13.8,11.3-21.8,8.6
			C1077.1,494.2,1082.6,483.9,1086.7,479.1z"/>
		<g>
			<path fill="#2C1D1B" d="M1112.4,455.3c-2.3,10.6-4.7,27.8-4.7,32.7c0,4.9-7.2,12-20.8,12.9c-13.6,0.9-9.3-6.2-6.7-11.5
				c1.1-2.4,2.4-4.4,3.6-6.5c0,0,2.6,3.9,8.3,3.9c5.7,0,8-1,10.3-6.7c2.3-5.6,5-22.2,6.3-27c1.3-4.7-3-12.5-3-12.5l0,0
				C1109.7,444.7,1114.1,447.1,1112.4,455.3z"/>
			<path fill="#2C1D1B" d="M1112.7,453.4l2.4,23.7c0,0.4-0.7,0.9-1.7,1s-1.7-0.1-1.9-0.6l-1.9-18.2L1112.7,453.4z"/>
		</g>
		<path fill="#73ACFF" d="M1038.1,200.5c5.3-10.2,12-17.1,12-24.5c-0.1-10.8-0.4-23.8,2.3-34c-3-4-12.8-8.9-7.9-22.4
			c2.7-7.5,8.8-14.2,10.9-16.9c3.3-4.4,9-11.9,14.9-15.9c5.7-4,8-1.6,13.8,0.9c0.6,0.3,20.9,6.7,35,16.5c2.6,1.9,7.7,5,9.5,7.2
			c4.4,5.3,3.3,9.8,3.3,14.9c0,0.4-15.9,29.1-23.8,47.2c-2.7,6.5-6.3,10.2-2,18.1c5.6,10.3,10.6,14.3,15.6,35
			c11.6,47.6-15.2,112.9-15.2,112.9s-11.3,10.3-30,9.2c-25-1.6-35.1-12.9-35.1-12.9s-9.3-44.3-9.8-77.3
			C1031.2,236.3,1031.5,213.3,1038.1,200.5z"/>
		<path fill="#382624" d="M1064.5,83.8c-0.7-4,0.3-8.3,2.9-11.6c3.3-4.3,10.5-8,15.6-4.9l0.1,0.1c4,0.7,7.2,5.2,7.2,9.3
			c3.2,9.6-6.9,18.6-15.8,17.2c0.7,2.7,0.6,5.7-0.7,8.3c-2.2,4.4-7,5.9-10.9,2.6c-4-3.3-6.6-9.8-5-14.9
			C1058.8,86.8,1061.4,84.5,1064.5,83.8z"/>
		<path fill="#FFB9A4" d="M1097.6,106c-5,1-9,0-13.5-3.6c-3.3-2.7-3.9-6-4.2-8.5c2.2-1.4,4.3-4.6,4.6-8.9c0.1-3-0.7-6.2-0.7-9.2
			c4.6-2,8.8-5,13.8-5.7c2.9-0.4,7.2-7.9,9.9-9c-2.3,6.5-0.9,16.1-0.3,19.9c0.6,4.4,1.6,13.9,4.4,18.6
			C1110,101.6,1102.4,105.1,1097.6,106z"/>
		<path fill="#FFC9B6" d="M1066.7,48c0.9-7,3-15.8,8.9-20.4c5.7-4.6,11.3-4.7,18.2-3.7c10.8,1.6,18.9,17.9,15.9,31.6
			c-2.7,12.6-10.8,28.1-25.1,29.7C1068.7,86.9,1065.4,58.8,1066.7,48z"/>
		<path fill="#FFC9B6" d="M1094.9,53.4c0,0,5.9-6.5,8.3-1.4c2.4,5.2-2.3,13.8-6.3,12.9C1092.8,63.8,1094.9,53.4,1094.9,53.4z"/>
		<path fill="#493231" d="M1060.3,17.9c7.6-7.5,22.5-8.6,31-2.6c4-4.9,11.3-4.2,17.1-1.3c6,2.9,9.5,9.5,8.9,15.9
			c11.5,0.6,17.1,17.6,9.5,25.8c3.4,2.7,5.6,7,5.3,11.8c-0.6,7.2-6.2,12.3-12.6,14.5c4.4,3.9,7.7,8.5,5.5,14.9
			c-3,8.2-12.1,10-19.8,10.8c0,0,0,0,0,0.1c2.2,5.6-1.1,10.5-4,13.2c-4.4,4.2-10.2,4-14.6,0.7c-4.3-3.2-6.5-8.9-2.9-13.3
			c0.9-1.1,4.2-4.6,7.6-4.6c-2.6-8,2.4-14.6,9.8-14.3c-1.6-4-1.9-8.2,0.4-11.3c-5.2-4.4-8.8-10.8-8.8-17.9c0-2.7,0.6-5.3,2.2-7.2
			c-8.2-3.7-13.9-10.2-16.8-19.1c-3.4,1.6-6.7,4.2-8.9,7c-2.4,3.4-2.7,10.9-2.6,13.3C1050.6,48,1050.3,27.7,1060.3,17.9z"/>
		<path fill="#4688E8" d="M1106.4,176.6l-0.4,14.8c0,0-20.1,9.2-36,7c-19.1-2.7-23.7-10.8-23.7-10.8l3.7-17.9c0,0,1.6,6.6,18.2,8.2
			C1084.7,179.6,1106.4,176.6,1106.4,176.6z"/>
		<path fill="#4688E8" d="M1092.9,250.6c0,0-3.4,18.4-18.8,22.2c-15.5,3.9-24,0-24,0s17.2-2.7,24.5-7.3
			C1081.7,261.1,1092.9,250.6,1092.9,250.6z"/>
		<path fill="#4688E8" d="M1073.8,250.6c0,0-10.3-1.1-17.6-9.2c-7.3-8-9.9-14.9-9.9-14.9s-1.1,15.6,9.5,21.9
			C1066.5,254.6,1073.8,250.6,1073.8,250.6z"/>
		<path fill="#4688E8" d="M1088.2,282.2c0,0-9.2,18.8-21.4,26.4c-7.6,4.9-15.1,4-15.1,4s6.3-6.3,14.9-11.8
			C1075.3,295.4,1088.2,282.2,1088.2,282.2z"/>
		<path fill="#4688E8" d="M1095.8,150.9c0,0-13.5,2.7-19.4,0c-6.3-2.9-15.3-8.5-15.3-8.5s2.3,11.3,15.3,13.8
			C1088.3,158.5,1095.8,150.9,1095.8,150.9z"/>
		<g>
			<polygon fill="#F2C9E3" points="1060.8,156.5 1057.5,158.4 1082.4,216.9 1085.7,215 			"/>
			<polygon fill="#FAFAFA" points="1014.4,133.4 1017.6,131.5 1060.8,156.5 1057.5,158.4 			"/>
			<polygon fill="#2C1D1B" points="1039,203.7 1090.3,233.4 1060.6,163.4 1009.1,133.8 			"/>
			<polygon fill="#3F2A28" points="1064.5,161.2 1060.6,163.4 1090.3,233.4 1094.2,231.2 			"/>
			<polygon fill="#3F3E3D" points="1009.1,133.8 1013,131.5 1064.5,161.2 1060.6,163.4 			"/>
		</g>
		<path fill="#FFC9B6" d="M1055.9,197.2c3.3-0.7,8.2,2.9,11.6,4s9.2-0.1,9.9-1.1c1.4-2-1.7-7-0.6-9.9c0.9-2,2.2-0.6,4.9,4
			c2.6,4.4,2.9,7.2,5.2,9.3c0,0,17.2-3.7,23.5-9c12.9-10.6,21.5-11.3,21.5-11.3s-10.5-19.5-12.2-30c-5.9-1.9-16.5-0.4-13.2-19.8
			c3.3-19.2,16.2-27.3,16.2-27.3s16.9,3.9,16.1,21.5c5.5,19.1,8.6,27.4,10.9,36.6c2.3,9.2,1.3,14.3,2.7,19.5
			c1.3,5.2-0.3,7.3-6.3,14.5c-3.6,4.2-14.1,11.5-28.7,15.2c-5.7,1.4-27.3,3.9-33.6,2c-6.3-1.9-18.5-1.4-25.1-8.2
			C1054.6,203.6,1050.7,198.4,1055.9,197.2z"/>
	</g>
	<g>
		<g>
			<g>
				<path fill="#FFB83B" d="M515.2,171.8v56.2c2.9-0.1,5.6-0.4,8.3-0.9v-55.4L515.2,171.8L515.2,171.8z"/>
				<path fill="#FFB83B" d="M503.9,171.8v56.2c1.6,0,3.2,0.1,4.9,0.1c0.7,0,1.6,0,2.3,0v-56.4H503.9z"/>
				<path fill="#FFB83B" d="M441.4,171.8v15.9c0,5.5,1.9,10.5,5,15.2v-31.3h-5V171.8z"/>
				<path fill="#FFB83B" d="M527.7,171.8v54.7c2.9-0.4,5.6-1.1,8.3-1.9v-52.9h-8.3V171.8z"/>
				<path fill="#FFB83B" d="M540.2,171.8v51.6c2.2-0.7,4.2-1.4,6-2.2v-49.5H540.2z"/>
				<path fill="#FFB83B" d="M460.9,171.8v44.5c1.9,1.1,4,2.2,6,3.3V172h-6V171.8z"/>
				<path fill="#FFB83B" d="M492.6,171.8v55.2c2.3,0.3,4.7,0.6,7.2,0.9V172h-7.2V171.8z"/>
				<path fill="#FFB83B" d="M471.2,171.8v49.5c2,0.7,4,1.4,6,2.2v-51.6H471.2z"/>
				<path fill="#FFB83B" d="M481.4,171.8v52.9c2.3,0.6,4.4,1.1,6.9,1.6v-54.5L481.4,171.8L481.4,171.8z"/>
				<path fill="#FFB83B" d="M450.5,171.8v36.3c1.9,1.9,3.9,3.6,6,5.3v-41.6H450.5z"/>
				<path fill="#FFB83B" d="M576.1,171.8h-5V203c3.2-4.7,5-9.9,5-15.2V171.8z"/>
				<path fill="#FFB83B" d="M560.7,171.8v41.6c2.3-1.7,4.3-3.4,6-5.3v-36.3H560.7z"/>
				<path fill="#FFB83B" d="M550.5,171.8v47.6c2.2-1,4.2-2,6-3.3v-44.5h-6V171.8z"/>
				<path fill="#FF9D27" d="M446.4,171.8V203c1.1,1.7,2.6,3.4,4.2,5.2v-36.3H446.4z"/>
				<path fill="#FF9D27" d="M456.6,171.8v41.6c1.3,1,2.7,1.9,4.2,2.9v-44.5H456.6z"/>
				<path fill="#FF9D27" d="M466.9,171.8v47.6c1.4,0.7,2.7,1.3,4.2,1.9v-49.5H466.9z"/>
				<path fill="#FF9D27" d="M477.2,171.8v51.6c1.4,0.4,2.7,0.9,4.2,1.3v-52.9L477.2,171.8L477.2,171.8z"/>
				<path fill="#FF9D27" d="M488.3,171.8v54.5c1.4,0.3,2.9,0.4,4.2,0.7v-55.2H488.3z"/>
				<path fill="#FF9D27" d="M499.6,171.8v55.9c1.4,0.1,2.9,0.1,4.2,0.3v-56.2H499.6z"/>
				<path fill="#FF9D27" d="M511.1,171.8v56.4c1.4,0,2.9,0,4.2-0.1v-56.2H511.1z"/>
				<path fill="#FF9D27" d="M523.6,171.8v55.4c1.4-0.1,2.9-0.4,4.2-0.7v-54.7L523.6,171.8L523.6,171.8z"/>
				<path fill="#FF9D27" d="M566.9,171.8v36.3c1.6-1.6,3-3.3,4.2-5.2v-31.3h-4.2V171.8z"/>
				<path fill="#FF9D27" d="M556.5,171.8v44.5c1.4-0.9,2.9-1.9,4.2-2.9v-41.6H556.5z"/>
				<path fill="#FF9D27" d="M546.2,171.8v49.5c1.4-0.6,2.9-1.3,4.2-1.9v-47.6H546.2z"/>
				<path fill="#FF9D27" d="M535.9,171.8v52.9c1.4-0.4,2.9-0.7,4.2-1.3v-51.6L535.9,171.8L535.9,171.8z"/>
			</g>
			<ellipse fill="#FFE375" cx="508.6" cy="171.8" rx="67.4" ry="40.5"/>
			<g>
				<path fill="#FF9D27" d="M508.6,139.4c31.3,0,56.8,14.6,58.5,33.3c0-0.7,0.1-1.3,0.1-2c0-19.5-26.3-35.3-58.8-35.3
					c-32.4,0-58.8,15.8-58.8,35.3c0,0.7,0.1,1.3,0.1,2C451.8,154.2,477.4,139.4,508.6,139.4z"/>
				<path opacity="0.5" fill="#FF9D27" enable-background="new    " d="M508.6,205.8c31.3,0,56.8-14.6,58.5-33.3
					c-1.7-18.5-27.3-33.3-58.5-33.3s-56.8,14.6-58.5,33.3C451.8,191.2,477.4,205.8,508.6,205.8z"/>
			</g>
		</g>
		<path fill="#FF9D27" d="M546.5,191.8c-2-2.4-4.3-4.6-6.7-6.6c2.3-3.6,3-7.9,1.1-12.5c-3-8-12.9-8.8-20.2-8
			c-3.4,0.3-6.7,1.3-10,2.3c-7-3.9-13.8-8.8-20.9-12.3c4.9-2.2,10.5-2.2,14.3-2.3c1.1,0,1.3-1.6,0.3-1.9c-5.6-1.7-13.2-1.3-19.2,2.2
			c-3-1.1-6.2-2.2-9.6-2.6c-0.4,0-0.6,0.6-0.3,0.9c2.2,1.3,4.3,2.6,6.6,3.9c-5.9,4.9-8.3,12.6,0.3,18.5c8.3,5.7,18.4,1.9,26.8-0.7
			c0.7-0.3,1.4-0.4,2.3-0.7c7.2,4,13.8,9.3,20.7,14.1c-3.3,2.4-8.2,4-11.8,4.7c-5.6,1-10.3,1-15.9-0.3c-1.1-0.3-2,1.1-1.1,1.9
			c6.3,6.2,21.8,4.4,31.1-1.6c0.9-0.6,1.6-1.1,2.3-1.7c2.7,1.7,5.6,3.3,8.6,4.7C546.4,193.9,547.2,192.8,546.5,191.8z M489.7,171
			c-8-1.4-9.8-7.9-4.9-13.1c0.3-0.3,0.7-0.6,1.1-0.9c6.6,3.9,13.2,7.7,19.8,11.6c-1,0.3-2.2,0.7-3.2,1
			C501.3,170.1,492.3,171.4,489.7,171z M522.5,169.4c5.7-0.3,17.4,0.3,12.9,12.3l0,0c-5.9-4.3-12.3-8-18.6-11.5
			C518.7,169.8,520.7,169.4,522.5,169.4z"/>
		<path fill="#FF9D27" d="M461.3,181.6c-1-1.9-2.3-3.7-2.9-5.7c-0.6-1.9,0-4-0.7-5.9c-0.3-0.6-0.9-0.9-1.4-0.4
			c-1.7,1.7-1.1,4.9-0.6,7c0.7,2.7,2,5,4.4,6.3C460.9,183.3,461.7,182.5,461.3,181.6z"/>
		<path fill="#FF9D27" d="M558,160.9c-0.3-0.3-0.7-0.1-0.9,0.3c0,2.3,0.7,4.4,0.3,6.9c-0.3,2-1.7,3.6-1.7,5.6c0,0.6,0.6,1.1,1.1,0.9
			C561.3,172.9,561.4,163.7,558,160.9z"/>
		<path fill="#FF9D27" d="M545.9,157.6c-0.4,0-0.6,0.4-0.3,0.7c1.1,1.6,3,2.6,4.3,3.9c1.3,1.3,2,2.4,3.7,3c0.4,0.1,0.9-0.3,0.9-0.7
			C554.7,161.1,549.2,157.4,545.9,157.6z"/>
	</g>
	<g>
		<g>
			<g>
				<path fill="#FFB83B" d="M534.3,138.3v56.2c2.9-0.1,5.6-0.4,8.3-0.9v-55.4H534.3z"/>
				<path fill="#FFB83B" d="M522.8,138.3v56.2c1.6,0,3.2,0.1,4.9,0.1c0.7,0,1.6,0,2.3,0v-56.4L522.8,138.3L522.8,138.3z"/>
				<path fill="#FFB83B" d="M460.3,138.3v15.9c0,5.5,1.9,10.5,5,15.2v-31.3h-5V138.3z"/>
				<path fill="#FFB83B" d="M546.6,138.3v54.7c2.9-0.4,5.6-1.1,8.3-1.9v-52.9h-8.3V138.3z"/>
				<path fill="#FFB83B" d="M559.1,138.3v51.6c2.2-0.7,4.2-1.4,6-2.2v-49.5H559.1L559.1,138.3z"/>
				<path fill="#FFB83B" d="M479.8,138.3v44.5c1.9,1.1,4,2.2,6,3.3v-47.6h-6V138.3z"/>
				<path fill="#FFB83B" d="M511.5,138.3v55.2c2.3,0.3,4.7,0.6,7.2,0.9v-55.9h-7.2V138.3z"/>
				<path fill="#FFB83B" d="M490.1,138.3v49.5c2,0.7,4,1.4,6,2.2v-51.6H490.1L490.1,138.3z"/>
				<path fill="#FFB83B" d="M500.5,138.3v52.9c2.3,0.6,4.4,1.1,6.9,1.6v-54.5L500.5,138.3L500.5,138.3z"/>
				<path fill="#FFB83B" d="M469.6,138.3v36.3c1.9,1.9,3.9,3.6,6,5.3v-41.6H469.6L469.6,138.3z"/>
				<path fill="#FFB83B" d="M595.1,138.3h-5v31.3c3.2-4.7,5-9.9,5-15.2V138.3z"/>
				<path fill="#FFB83B" d="M579.8,138.3v41.6c2.3-1.7,4.3-3.4,6-5.3v-36.3H579.8L579.8,138.3z"/>
				<path fill="#FFB83B" d="M569.5,138.3v47.6c2.2-1,4.2-2,6-3.3v-44.5h-6V138.3z"/>
				<path fill="#FF9D27" d="M465.3,138.3v31.3c1.1,1.7,2.6,3.4,4.2,5.2v-36.3h-4.2V138.3z"/>
				<path fill="#FF9D27" d="M475.6,138.3v41.6c1.3,1,2.7,1.9,4.2,2.9v-44.5H475.6L475.6,138.3z"/>
				<path fill="#FF9D27" d="M486,138.3v47.6c1.4,0.7,2.7,1.3,4.2,1.9v-49.5L486,138.3L486,138.3z"/>
				<path fill="#FF9D27" d="M496.3,138.3v51.6c1.4,0.4,2.7,0.9,4.2,1.3v-52.9L496.3,138.3L496.3,138.3z"/>
				<path fill="#FF9D27" d="M507.3,138.3v54.5c1.4,0.3,2.9,0.4,4.2,0.7v-55.2H507.3L507.3,138.3z"/>
				<path fill="#FF9D27" d="M518.7,138.3v55.9c1.4,0.1,2.9,0.1,4.2,0.3v-56.2H518.7L518.7,138.3z"/>
				<path fill="#FF9D27" d="M530,138.3v56.4c1.4,0,2.9,0,4.2-0.1v-56.2H530L530,138.3z"/>
				<path fill="#FF9D27" d="M542.5,138.3v55.4c1.4-0.1,2.9-0.4,4.2-0.7v-54.7H542.5z"/>
				<path fill="#FF9D27" d="M585.8,138.3v36.3c1.6-1.6,3-3.3,4.2-5.2v-31.3h-4.2V138.3z"/>
				<path fill="#FF9D27" d="M575.6,138.3v44.5c1.4-0.9,2.9-1.9,4.2-2.9v-41.6H575.6L575.6,138.3z"/>
				<path fill="#FF9D27" d="M565.3,138.3v49.5c1.4-0.6,2.9-1.3,4.2-1.9v-47.6H565.3L565.3,138.3z"/>
				<path fill="#FF9D27" d="M555,138.3v52.9c1.4-0.4,2.9-0.7,4.2-1.3v-51.6L555,138.3L555,138.3z"/>
			</g>
			<ellipse fill="#FFE375" cx="527.7" cy="138.3" rx="67.4" ry="40.5"/>
			<g>
				<path fill="#FF9D27" d="M527.7,106c31.3,0,56.8,14.6,58.5,33.3c0-0.7,0.1-1.3,0.1-2c0-19.5-26.3-35.3-58.8-35.3
					s-58.8,15.8-58.8,35.3c0,0.7,0.1,1.3,0.1,2C470.9,120.6,496.4,106,527.7,106z"/>
				<path opacity="0.5" fill="#FF9D27" enable-background="new    " d="M527.7,172.4c31.3,0,56.8-14.6,58.5-33.3
					c-1.7-18.5-27.3-33.3-58.5-33.3c-31.3,0-56.8,14.6-58.5,33.3C470.9,157.6,496.4,172.4,527.7,172.4z"/>
			</g>
		</g>
		<path fill="#FF9D27" d="M565.4,158.4c-2-2.4-4.3-4.6-6.7-6.6c2.3-3.6,3-7.9,1.1-12.5c-3-8-12.9-8.8-20.2-8
			c-3.4,0.3-6.7,1.3-10,2.3c-7-3.9-13.8-8.8-20.9-12.3c4.9-2.2,10.5-2.2,14.3-2.3c1.1,0,1.3-1.6,0.3-1.9c-5.6-1.7-13.2-1.3-19.2,2.2
			c-3-1.1-6.2-2.2-9.6-2.6c-0.4,0-0.6,0.6-0.3,0.9c2.2,1.3,4.3,2.6,6.6,3.9c-5.9,4.9-8.3,12.6,0.3,18.5c8.3,5.7,18.4,1.9,26.8-0.7
			c0.7-0.3,1.4-0.4,2.3-0.7c7.2,4,13.8,9.3,20.7,14.1c-3.3,2.4-8.2,4-11.8,4.7c-5.6,1-10.3,1-15.9-0.3c-1.1-0.3-2,1.1-1.1,1.9
			c6.3,6.2,21.8,4.4,31.1-1.6c0.9-0.6,1.6-1.1,2.3-1.7c2.7,1.7,5.6,3.3,8.6,4.7C565.3,160.5,566.3,159.2,565.4,158.4z M508.6,137.4
			c-8-1.4-9.8-7.9-4.9-13.1c0.3-0.3,0.7-0.6,1.1-0.9c6.6,3.9,13.2,7.7,19.8,11.6c-1,0.3-2.2,0.7-3.2,1
			C520.3,136.7,511.2,137.8,508.6,137.4z M541.6,135.8c5.7-0.3,17.4,0.3,12.9,12.3l0,0c-5.9-4.3-12.3-8-18.6-11.5
			C537.8,136.3,539.6,136,541.6,135.8z"/>
		<path fill="#FF9D27" d="M480.4,148.2c-1-1.9-2.3-3.7-2.9-5.7c-0.6-1.9,0-4-0.7-5.9c-0.3-0.6-0.9-0.9-1.4-0.4
			c-1.7,1.7-1.1,4.9-0.6,7c0.7,2.7,2,5,4.4,6.3C479.9,149.8,480.8,148.9,480.4,148.2z"/>
		<path fill="#FF9D27" d="M576.9,127.4c-0.3-0.3-0.7-0.1-0.9,0.3c0,2.3,0.7,4.4,0.3,6.9c-0.3,2-1.7,3.6-1.7,5.6
			c0,0.6,0.6,1.1,1.1,0.9C580.2,139.4,580.4,130.1,576.9,127.4z"/>
		<path fill="#FF9D27" d="M564.9,124.2c-0.4,0-0.6,0.4-0.3,0.7c1.1,1.6,3,2.6,4.3,3.9c1.3,1.3,2,2.4,3.7,3c0.4,0.1,0.9-0.3,0.9-0.7
			C573.8,127.5,568.2,123.9,564.9,124.2z"/>
	</g>
	<g>
		<g>
			<g>
				<path fill="#FFB83B" d="M655.8,42.5v56.2c2.9-0.1,5.6-0.4,8.3-0.9V42.5H655.8z"/>
				<path fill="#FFB83B" d="M644.5,42.5v56.2c1.6,0,3.2,0.1,4.9,0.1c0.7,0,1.6,0,2.3,0V42.5H644.5z"/>
				<path fill="#FFB83B" d="M581.9,42.5v15.9c0,5.5,1.9,10.5,5,15.2V42.5H581.9z"/>
				<path fill="#FFB83B" d="M668.3,42.5v54.7c2.9-0.4,5.6-1.1,8.3-1.9V42.5H668.3z"/>
				<path fill="#FFB83B" d="M680.8,42.5v51.6c2.2-0.7,4.2-1.4,6-2.2V42.5H680.8z"/>
				<path fill="#FFB83B" d="M601.4,42.5v44.5c1.9,1.1,4,2.2,6,3.3V42.5H601.4z"/>
				<path fill="#FFB83B" d="M633.1,42.5v55.2c2.3,0.3,4.7,0.6,7.2,0.9V42.6h-7.2V42.5z"/>
				<path fill="#FFB83B" d="M611.8,42.5v49.5c2,0.7,4,1.4,6,2.2V42.5H611.8z"/>
				<path fill="#FFB83B" d="M622.1,42.5v52.9c2.3,0.6,4.4,1.1,6.9,1.6V42.5H622.1z"/>
				<path fill="#FFB83B" d="M591.1,42.5v36.3c1.9,1.9,3.9,3.6,6,5.3V42.5L591.1,42.5L591.1,42.5z"/>
				<path fill="#FFB83B" d="M716.6,42.5h-5v31.3c3.2-4.7,5-9.9,5-15.2V42.5z"/>
				<path fill="#FFB83B" d="M701.4,42.5v41.6c2.3-1.7,4.3-3.4,6-5.3V42.5H701.4z"/>
				<path fill="#FFB83B" d="M691.1,42.5v47.6c2.2-1,4.2-2,6-3.3V42.3h-6V42.5z"/>
				<path fill="#FF9D27" d="M587,42.5v31.3c1.1,1.7,2.6,3.4,4.2,5.2V42.5H587z"/>
				<path fill="#FF9D27" d="M597.3,42.5v41.6c1.3,1,2.7,1.9,4.2,2.9V42.5H597.3z"/>
				<path fill="#FF9D27" d="M607.5,42.5v47.6c1.4,0.7,2.7,1.3,4.2,1.9V42.5H607.5z"/>
				<path fill="#FF9D27" d="M617.8,42.5v51.6c1.4,0.4,2.7,0.9,4.2,1.3V42.5H617.8z"/>
				<path fill="#FF9D27" d="M628.8,42.5V97c1.4,0.3,2.9,0.4,4.2,0.7V42.5H628.8z"/>
				<path fill="#FF9D27" d="M640.3,42.5v55.9c1.4,0.1,2.9,0.1,4.2,0.3V42.5H640.3z"/>
				<path fill="#FF9D27" d="M651.7,42.5v56.4c1.4,0,2.9,0,4.2-0.1V42.5H651.7z"/>
				<path fill="#FF9D27" d="M664.1,42.5v55.4c1.4-0.1,2.9-0.4,4.2-0.7V42.5H664.1z"/>
				<path fill="#FF9D27" d="M707.5,42.5v36.3c1.6-1.6,3-3.3,4.2-5.2V42.5H707.5z"/>
				<path fill="#FF9D27" d="M697.1,42.5v44.5c1.4-0.9,2.9-1.9,4.2-2.9V42.5H697.1z"/>
				<path fill="#FF9D27" d="M686.8,42.5v49.5c1.4-0.6,2.9-1.3,4.2-1.9V42.5H686.8z"/>
				<path fill="#FF9D27" d="M676.6,42.5v52.9c1.4-0.4,2.9-0.7,4.2-1.3V42.5H676.6z"/>
			</g>
			<ellipse fill="#FFE375" cx="649.4" cy="42.5" rx="67.4" ry="40.5"/>
			<g>
				<path fill="#FF9D27" d="M649.4,10.2c31.3,0,56.8,14.6,58.5,33.3c0-0.7,0.1-1.3,0.1-2c0-19.5-26.3-35.3-58.8-35.3
					c-32.4,0-58.8,15.8-58.8,35.3c0,0.7,0.1,1.3,0.1,2C592.6,24.8,617.9,10.2,649.4,10.2z"/>
				<path opacity="0.5" fill="#FF9D27" enable-background="new    " d="M649.4,76.6c31.3,0,56.8-14.6,58.5-33.3
					C706.2,24.8,680.6,10,649.4,10c-31.3,0-56.8,14.6-58.5,33.3C592.6,61.8,617.9,76.6,649.4,76.6z"/>
			</g>
		</g>
		<path fill="#FF9D27" d="M687.1,62.4c-2-2.4-4.3-4.6-6.7-6.6c2.3-3.6,3-7.9,1.1-12.5c-3-8-12.9-8.8-20.2-8c-3.4,0.3-6.7,1.3-10,2.3
			c-7-3.9-13.8-8.8-20.9-12.3c4.9-2.2,10.5-2.2,14.3-2.3c1.1,0,1.3-1.6,0.3-1.9c-5.6-1.7-13.2-1.3-19.2,2.2c-3-1.1-6.2-2.2-9.6-2.6
			c-0.4,0-0.6,0.6-0.3,0.9c2.2,1.3,4.3,2.6,6.6,3.9c-5.9,4.9-8.3,12.6,0.3,18.5c8.3,5.7,18.4,1.9,26.8-0.7c0.7-0.3,1.4-0.4,2.3-0.7
			c7.2,4,13.8,9.3,20.7,14.1c-3.3,2.4-8.2,4-11.8,4.7c-5.6,1-10.3,1-15.9-0.3c-1.1-0.3-2,1.1-1.1,1.9c6.3,6.2,21.8,4.4,31.1-1.6
			c0.9-0.6,1.6-1.1,2.3-1.7c2.7,1.7,5.6,3.3,8.6,4.7C686.9,64.7,687.9,63.4,687.1,62.4z M630.3,41.6c-8-1.4-9.8-7.9-4.9-13.1
			c0.3-0.3,0.7-0.6,1.1-0.9c6.6,3.9,13.2,7.7,19.8,11.6c-1,0.3-2.2,0.7-3.2,1C641.9,40.7,632.9,42,630.3,41.6z M663.1,40
			c5.7-0.3,17.4,0.3,12.9,12.3l0,0c-5.9-4.3-12.3-8-18.6-11.5C659.3,40.4,661.3,40.2,663.1,40z"/>
		<path fill="#FF9D27" d="M601.9,52.2c-1-1.9-2.3-3.7-2.9-5.7c-0.6-1.9,0-4-0.7-5.9c-0.3-0.6-0.9-0.9-1.4-0.4
			c-1.7,1.7-1.1,4.9-0.6,7c0.7,2.7,2,5,4.4,6.3C601.4,53.9,602.3,53.1,601.9,52.2z"/>
		<path fill="#FF9D27" d="M698.6,31.6c-0.3-0.3-0.7-0.1-0.9,0.3c0,2.3,0.7,4.4,0.3,6.9c-0.3,2-1.7,3.6-1.7,5.6
			c0,0.6,0.6,1.1,1.1,0.9C701.9,43.6,702,34.3,698.6,31.6z"/>
		<path fill="#FF9D27" d="M686.5,28.3c-0.4,0-0.6,0.4-0.3,0.7c1.1,1.6,3,2.6,4.3,3.9c1.3,1.3,2,2.4,3.7,3c0.4,0.1,0.9-0.3,0.9-0.7
			C695.4,31.7,689.8,28.1,686.5,28.3z"/>
	</g>
</g>
</svg>
