<?xml version="1.0" encoding="utf-8"?>
<!-- Generator: Adobe Illustrator 18.0.0, SVG Export Plug-In . SVG Version: 6.00 Build 0)  -->
<!DOCTYPE svg PUBLIC "-//W3C//DTD SVG 1.0//EN" "http://www.w3.org/TR/2001/REC-SVG-20010904/DTD/svg10.dtd">
<svg version="1.0" id="Capa_1" xmlns="http://www.w3.org/2000/svg" xmlns:xlink="http://www.w3.org/1999/xlink" x="0px" y="0px"
	 viewBox="0 0 1010.1 643.9" enable-background="new 0 0 1010.1 643.9" xml:space="preserve">
<linearGradient id="SVGID_1_" gradientUnits="userSpaceOnUse" x1="1003.2104" y1="-95.7079" x2="556.1375" y2="438.3221">
	<stop  offset="0" style="stop-color:#303180"/>
	<stop  offset="0.8147" style="stop-color:#4470B4"/>
</linearGradient>
<path fill="url(#SVGID_1_)" d="M1010.1,0v582.2c-89.6,38.7-203,21.9-275.2-43c-22.4-20.1-41.5-44.6-68.4-58.6
	c-59-30.7-142.7-5-190.8-50.2c-41.6-39-30.5-107.8-61.6-155.2c-13.5-20.6-31.6-38.2-51.3-53.3c-72.1-54.8-79.4-178.8-7.3-222H1010.1
	z"/>
<linearGradient id="SVGID_2_" gradientUnits="userSpaceOnUse" x1="1012.8161" y1="-93.9417" x2="549.0221" y2="460.0617">
	<stop  offset="0" style="stop-color:#303180"/>
	<stop  offset="9.776627e-002" style="stop-color:#38438B"/>
	<stop  offset="0.7617" style="stop-color:#6BBED6"/>
</linearGradient>
<path opacity="0.1246" fill="url(#SVGID_2_)" d="M1013.6,0l0,598.7c-89.4,39-219.2,26.6-291.3-38.8c-22.3-20.3-41.4-44.9-68.3-59
	c-58.9-31-142.4-5.1-190.4-50.6c-41.5-39.4-30.4-108.7-61.4-156.5c-13.4-20.7-31.5-38.5-51.2-53.7C279,184.8,288.3,43.5,360.3,0
	H1013.6z"/>
</svg>
