<?xml version="1.0" encoding="utf-8"?>
<!-- Generator: Adobe Illustrator 18.0.0, SVG Export Plug-In . SVG Version: 6.00 Build 0)  -->
<!DOCTYPE svg PUBLIC "-//W3C//DTD SVG 1.0//EN" "http://www.w3.org/TR/2001/REC-SVG-20010904/DTD/svg10.dtd">
<svg version="1.0" id="Capa_1" xmlns="http://www.w3.org/2000/svg" xmlns:xlink="http://www.w3.org/1999/xlink" x="0px" y="0px"
	 viewBox="0 0 271.9 268.9" enable-background="new 0 0 271.9 268.9" xml:space="preserve">
<g>
	<g>
		<g>
			<path fill="#4470B4" d="M30,90.2h13.2v41.9l19.4-21.6h16.5l-22.6,25.1l25.3,27.3H65.5l-22.3-24.2v24.2H30V90.2z"/>
		</g>
		<g>
			<path fill="#303180" d="M131.1,140.5H88.8c0.6,3.7,2.2,6.7,4.9,8.9c2.7,2.2,6,3.3,10.1,3.3c4.9,0,9.1-1.7,12.7-5.2l11.1,5.2
				c-2.8,3.9-6.1,6.8-9.9,8.7c-3.9,1.9-8.4,2.8-13.8,2.8c-8.2,0-14.9-2.6-20.1-7.8c-5.2-5.2-7.8-11.7-7.8-19.5
				c0-8,2.6-14.7,7.8-19.9c5.2-5.3,11.6-7.9,19.4-7.9c8.3,0,15,2.6,20.2,7.9c5.2,5.3,7.8,12.3,7.8,21L131.1,140.5z M117.9,130.1
				c-0.9-2.9-2.6-5.3-5.1-7.1c-2.6-1.8-5.5-2.7-8.9-2.7c-3.7,0-6.9,1-9.7,3.1c-1.7,1.3-3.4,3.6-4.8,6.8H117.9z"/>
		</g>
		<g>
			<path fill="#303180" d="M185.6,140.5h-42.3c0.6,3.7,2.3,6.7,4.9,8.9c2.7,2.2,6,3.3,10.1,3.3c4.9,0,9.1-1.7,12.7-5.2l11.1,5.2
				c-2.8,3.9-6.1,6.8-9.9,8.7c-3.9,1.9-8.4,2.8-13.7,2.8c-8.2,0-14.9-2.6-20.1-7.8c-5.2-5.2-7.8-11.7-7.8-19.5
				c0-8,2.6-14.7,7.7-19.9c5.2-5.3,11.6-7.9,19.4-7.9c8.3,0,15,2.6,20.2,7.9c5.2,5.3,7.8,12.3,7.8,21L185.6,140.5z M172.4,130.1
				c-0.9-2.9-2.6-5.3-5.1-7.1c-2.6-1.8-5.5-2.7-8.9-2.7c-3.7,0-6.9,1-9.7,3.1c-1.7,1.3-3.3,3.6-4.8,6.8H172.4z"/>
		</g>
		<g>
			<path fill="#4470B4" d="M200.6,110.4v5.8c2.4-2.4,5-4.2,7.7-5.4c2.8-1.2,5.7-1.8,8.9-1.8c6.8,0,12.7,2.6,17.5,7.8
				c4.8,5.2,7.2,11.8,7.2,19.9c0,7.8-2.5,14.4-7.4,19.6c-5,5.3-10.8,7.9-17.6,7.9c-3,0-5.8-0.5-8.4-1.6c-2.6-1.1-5.2-2.8-7.8-5.3
				v24.7h-13.1v-71.7H200.6z M214.5,121.2c-4.1,0-7.6,1.4-10.3,4.2c-2.7,2.8-4.1,6.5-4.1,11.1c0,4.7,1.4,8.4,4.1,11.3
				c2.7,2.9,6.2,4.3,10.3,4.3c4,0,7.4-1.5,10.1-4.4c2.7-2.9,4.1-6.7,4.1-11.2c0-4.5-1.3-8.2-4-11.1
				C222,122.7,218.6,121.2,214.5,121.2z"/>
		</g>
	</g>
	<g>
		<path fill="#4470B4" d="M136,265.9c-55.9,0-105.9-35.5-124.3-88.3c-11.6-33.2-9.6-68.9,5.7-100.6c15.3-31.7,42-55.5,75.2-67.1
			C102.6,6.3,113.1,4,123.6,3c3.3-0.3,6.2,1.9,6.9,5.2c0.6,3.2,1.5,6.4,2.5,9.5c9.2,26.2,34,43.9,61.8,43.9c7.3,0,14.6-1.2,21.6-3.7
			c5-1.8,9.8-4.1,14.3-7c2.8-1.8,6.4-1.2,8.5,1.4c9.1,11.5,16.3,24.5,21.2,38.5c23.9,68.6-12.4,143.8-80.9,167.7
			C165.3,263.4,150.7,265.9,136,265.9z M119.3,16.4c-7.7,1.1-15.2,2.9-22.5,5.5c-30,10.5-54.1,32-67.9,60.6
			c-13.8,28.6-15.6,60.9-5.2,90.9c16.7,47.7,61.8,79.8,112.3,79.8c13.3,0,26.5-2.2,39.2-6.7c61.9-21.6,94.7-89.6,73.1-151.5
			c-3.8-10.9-9.1-21.1-15.8-30.3c-3.8,2.1-7.8,3.9-12,5.3c-8.3,2.9-17,4.4-25.8,4.4c-33.2,0-62.9-21.1-73.8-52.4
			C120.4,20.1,119.8,18.3,119.3,16.4z"/>
	</g>
	<g>
		<path fill="#4470B4" d="M136.4,246c-14.8,0-29.5-3.3-43.2-9.9c-24-11.6-42-31.8-50.8-56.9l-0.3-0.8c-1.1-3.3,0.6-7,4-8.1
			c3.3-1.1,6.9,0.6,8.1,3.9l0,0.1l0.3,0.8c7.7,21.9,23.4,39.5,44.3,49.6c20.9,10.1,44.5,11.4,66.4,3.8c24.5-8.5,43.7-27.3,52.8-51.6
			c1.2-3.3,4.9-5,8.2-3.7c3.3,1.2,5,4.9,3.7,8.2c-10.4,27.8-32.5,49.4-60.5,59.2C158.5,244.1,147.4,246,136.4,246z"/>
	</g>
</g>
</svg>
